<svg xmlns="http://www.w3.org/2000/svg" width="32" height="32" viewBox="0 0 32 32"><g class="nc-icon-wrapper" fill="currentColor"><path d="M24 14.432a1.344 1.344 0 0 0-1.344 1.312v9.6a1.344 1.344 0 0 1-1.312 1.312H6.656a1.344 1.344 0 0 1-1.312-1.312V10.656a1.344 1.344 0 0 1 1.312-1.312h9.568a1.344 1.344 0 0 0 0-2.688H6.656a4 4 0 0 0-4 4v14.688a4 4 0 0 0 4 4h14.688a4 4 0 0 0 4-4v-9.6A1.344 1.344 0 0 0 24 14.432zm5.216-10.944a1.344 1.344 0 0 0-.704-.704A1.344 1.344 0 0 0 28 2.656h-8a1.344 1.344 0 0 0 0 2.688h4.8L11.04 19.04a1.344 1.344 0 0 0 0 1.92 1.344 1.344 0 0 0 1.92 0L26.656 7.2V12a1.344 1.344 0 0 0 2.688 0V4a1.344 1.344 0 0 0-.128-.512z" fill="currentColor"/></g></svg>