<svg xmlns="http://www.w3.org/2000/svg" width="500" height="466.568" viewBox="0 0 500 466.568"><path d="M139.96,164.458a12.088,12.088,0,0,1,4.7,5.876,16.816,16.816,0,0,1,.76,2.414,18.5,18.5,0,0,1-.172,9.121,10.362,10.362,0,0,1-8.859,8.248c1.388,8.666,2.693,14.412,2.974,15.786,1.352,5.809,1.248,4.362,1.066,5.774l-.716.581-.909-.112-.588-.724c0-.184-1.833-5.448-3.535-12.952-2.414-10.624-2.153-9.945-1.872-10.647a1.8,1.8,0,0,1,.79-.783c.741-.278,1.655-.226,3.353-.76a5.345,5.345,0,0,0,2.972-2.04,13.705,13.705,0,0,0,1.171-12.293,7.917,7.917,0,0,0-3.931-4.572c-2.1-1.169-.3-2.276-1.785-10.285-5.3-27.252-35.563-28-47.844-11.674l-.784.483-.862-.164h-.016l-.467-.745c.186-1.067.124-.862.262-1.076v-.009c14.926-22.95,54.008-16.149,54.289,20.552Z" transform="translate(53.226 69.279)" fill-rule="evenodd"/><path d="M97.1,145.452a5.555,5.555,0,0,1,3.945,1.507,3.762,3.762,0,0,1,1.267,1.945c0,.012-.162.783-.162.795-2.643.262-1.124.184-2.65-.076a6.659,6.659,0,0,0-.814-.114l-.04-.01a6.254,6.254,0,0,0-2.8.021l-.048.022a3.586,3.586,0,0,0-1.4.9c-.216.295-.422.345-1.416.971-.186.148.067,0-1.629.74-.748-1.724-.662-1.49-.681-1.674a3.819,3.819,0,0,1,.536-2.288,7.2,7.2,0,0,1,3.326-2.333,7.825,7.825,0,0,1,2.56-.405Z" transform="translate(57.034 80.006)" fill-rule="evenodd"/><ellipse cx="3.967" cy="3.502" rx="3.967" ry="3.502" transform="translate(150.55 243.757) rotate(-87.504)"/><path d="M99.621,174.545l-.957-.248q-.581-.33-1.19-.607c-.148-.071-1.552-.736-1.712-.807a13.527,13.527,0,0,1-1.207-.64,8.686,8.686,0,0,0-2.429-.931,3.449,3.449,0,0,0-.593-.05h-.345v.009l-.026.022-.009.016v.016h-.009a1.2,1.2,0,0,0-.06.117l-.017.014-.034.047-.016.016-.017.031-.017.016-.05.047-.017.031-.076.091a2.933,2.933,0,0,0-.329.462,5.2,5.2,0,0,0-.429.736v.022l-1.219,1.171c-1.31-1.364-1.164-1-1.471-2.343a7.424,7.424,0,0,1-.043-1,3.3,3.3,0,0,1,.234-1.022,4.519,4.519,0,0,1,1.664-1.905,4.828,4.828,0,0,1,2.9-.66,12.19,12.19,0,0,1,5.84,2.343,13.31,13.31,0,0,1,2.529,2.828l.3.935-.248.785Z" transform="translate(54.629 95.735)" fill-rule="evenodd"/><path d="M87.95,176.51c.517.44,1.912,1.412,2.1,1.529a17.378,17.378,0,0,0,9.592,3.579,17.97,17.97,0,0,0,5.183-.466c1.335-.3,2.667-1.052,3.633.85a78.293,78.293,0,0,1,3.793,10.483c.619,1.9.517,1.191.5,2.46l-.576.667h-.017l-.881.009c-.862-.748-.529-.138-2.478-3.872q-1.677-3.359-3.24-6.774a20.786,20.786,0,0,1-4.464.56,21.235,21.235,0,0,1-12.069-3.474,12.586,12.586,0,0,1-3.76-3.747V178.3a19.076,19.076,0,0,1-1.3-2.3l-.11-.943.428-.7h.017l.816-.131c1.466.8-.026-.145,2.828,2.285Z" transform="translate(52.106 100.843)" fill-rule="evenodd"/><path d="M93.51,188.217c-3.059-1.1-7.114-2.288-7.962-5.414a68.757,68.757,0,0,1-1.569-6.838,35.892,35.892,0,0,1-.31-9.1c.047-.333-.091-1.179.195-.993,2.972,2,1.36,7.028,9.252,22.09" transform="translate(51.853 94.775)" fill-rule="evenodd"/><path d="M88.717,191.262a11.443,11.443,0,0,0,5.45,1.062c-.993-2.424-3.755-9.259-1.162-8.876.829.133,1.452.984,1.885,1.624,1.135,1.678,1.552,4.207,3.15,5.547,1.424,1.207,5.057-.462,6.479-1.035.938-.379,3.276-.862,3.6-2.059.345-1.312-.772-3.038-1.255-4.186q-1.577-3.765-3.345-7.447a12.324,12.324,0,0,0-2.586-4.107c-2.474-2.195-4.226-.895-5.841-1.971-1.01-.69-1.491-1.869-.052-2.45a7.105,7.105,0,0,1,3.966.047,11.013,11.013,0,0,1,3.64,1.24c3.321,2.038,5,6.035,8.214,11.1,2.4,3.867,2.312,7.133,8.054.781,8.407-9.233,5.136-12.945,7.8-22.007.172-.564.583-2.262,1.471-2.057,1.391.345,1.81,2.422,1.957,3.59a33.759,33.759,0,0,1-.216,11.335,23.449,23.449,0,0,1-4.1,9.5c-2.414,3.009-8.329,9.026-14.688,11.655-1.4.576-6.3,2.769-7.448,3.06-8.793,2.262-16.223-1.329-17.385-3.919-.217-.517.012-1.017.622-.983a6.537,6.537,0,0,1,1.866.583" transform="translate(53.814 87.97)" fill-rule="evenodd"/><path d="M61.024,144.968c.752.81.517.15,1.855,4.259,10.679,36.169-7.335,61.915-3.948,115.95C60.189,281.828,63.2,295.946,71.887,310a71.4,71.4,0,0,0,26.818,24.6c.905.04,25.03,16.361,61.011,4.138l.928.048.629.671-.048.928-.671.638a84.712,84.712,0,0,1-22.242,5.076,74.7,74.7,0,0,1-73.755-41.251c-11.869-23.9-11.257-58.654-7.723-85.081,2.181-18.609,8.816-45.444,4.626-65.318a65.9,65.9,0,0,0-2.059-8.017l.072-.91.669-.607Z" transform="translate(30.913 79.623)" fill="#010101" fill-rule="evenodd"/><path d="M65.934,143.419l.736.619c2.205,3.01,2.547,5.3,3.517,10.052a50.49,50.49,0,0,1,.929,9.138,36.581,36.581,0,0,1-.629,5.486l-.457.845-.8.331-.769-.4-.39-.885h-.009c-.1-1.236-.679-5.345-.929-8.2-.65-7.426-2.069-10.205-2.464-13.461-.009-.069-.214-2-.228-2.069,0-.014.159-.943.16-.955l.541-.572h.017Z" transform="translate(38.042 78.486)" fill="#010101" fill-rule="evenodd"/><path d="M74.011,142.637a3.985,3.985,0,0,1,1.352,1.616,12.849,12.849,0,0,1,1.274,2.638,50.711,50.711,0,0,1,1.526,9.5,26.37,26.37,0,0,1-.566,8.776c-.152.819-.645,2.226-.653,2.414l-.559.786-.829.241-.719-.484-.284-.926c0-2.143-.207-9.257-.248-10.186a50.971,50.971,0,0,0-1.443-9.31c-.133-.766-.366-3.5-.359-3.631l.172-.953.541-.564h.016Z" transform="translate(43.879 77.905)" fill="#010101" fill-rule="evenodd"/><path d="M82.266,145.623c.619.891.626.409,1.533,6.207a130.21,130.21,0,0,1,.462,22.216,92.729,92.729,0,0,0,.729,17.873c4.124,23.793,21.505,49.863,31.38,77.653a2.759,2.759,0,0,1,.271,1.838l-.664.631-.91-.047c-.852-.884-.374-.067-1.847-3.576-10.4-23.257-27-50.894-31.621-73.508-3.228-16.583.471-30.044-.91-46.208-.279-2.29-.293-1.659-.021-2.79l.745-.5Z" transform="translate(49.479 79.98)" fill="#010101" fill-rule="evenodd"/><path d="M114.448,207.991l.678.505-.022.85c-2.276,2.931-6.95,4.364-12.183,7.414a8.41,8.41,0,0,1-3.236,1.193c-.366.1-.014.129-1.928-.267.395-1.917.283-1.576.517-1.883a7.3,7.3,0,0,1,2.714-2.431c.009-.2,6.7-3.481,7.719-3.966a32.031,32.031,0,0,1,3.126-1.024,5.285,5.285,0,0,1,2.616-.391Z" transform="translate(62.167 125.275)" fill="#010101" fill-rule="evenodd"/><path d="M24.237,165.049h.016l.59.669c-.052,1.514.188.155-1.474,4.29-6.438,15.543-10.242,34.311-12.4,51.268-1.219,10.781-1.8,20.226-2,27.09a80.941,80.941,0,0,0,2.362,24.426,86.777,86.777,0,0,0,3.036,9.093A55.066,55.066,0,0,0,40.484,309.73a53.547,53.547,0,0,0,23.449,5.224,72.443,72.443,0,0,0,26.775-5.569c1.617-.648,6.574-2.891,6.776-3.081l.924-.071c.014.01.7.583.712.595l.072.917c-.8.969.028.478-5.721,3.309A80.147,80.147,0,0,1,74.2,317.31a68.349,68.349,0,0,1-13.367,1.069c-1.053,0-2.095-.1-2.783-.129a55.391,55.391,0,0,1-9.41-1.507,54.654,54.654,0,0,1-9.047-3.159A55.932,55.932,0,0,1,22.182,300.9,55.254,55.254,0,0,1,11.625,285.4C3.826,267.951,4.481,253.049,5.837,234c2.129-24.856,5.407-45.92,16.817-68.385l.69-.6Z" transform="translate(-5.002 94.176)" fill="#010101" fill-rule="evenodd"/><path d="M38.934,170.139l.76.415.319.862c0,.259-.043,3.233.081,5.445,0,1.222.172,3.924.2,4.472a151.629,151.629,0,0,0,2.038,19.973c1.9,12.631,7.9,30.018,12.678,41.749,4.295,10.542,3.733,8.167,3.814,9.81l-.586.705c-.012.016-.905.047-.916.047-.948-.805-.517-.241-1.957-2.881-1-1.926-3.926-7.364-6.3-13a164.112,164.112,0,0,1-11.207-39.747c-2.524-16.764-.293-25.173-.224-26.764l.455-.807.822-.281Z" transform="translate(17.921 97.883)" fill="#010101" fill-rule="evenodd"/><path d="M59.32,207.263l.645.505-.059.816-.648.829a17.665,17.665,0,0,1-3.966,2.5c-.2-.009-1.434.678-5.517,2.174a3.511,3.511,0,0,1-1.222.336c-.172.019-.766.031-.891.026-1.136-.071-.6.088-2.436-.774.862-1.85.538-1.343,1.379-2.148a4.528,4.528,0,0,1,1.8-1.09c.355.016,6.448-2.817,8.621-3.033a5.366,5.366,0,0,1,2.291-.138Z" transform="translate(24.126 124.722)" fill="#010101" fill-rule="evenodd"/><ellipse cx="4.366" cy="4.762" rx="4.366" ry="4.762" transform="translate(368.454 217.232) rotate(-4.024)"/><path d="M227.682,133.232a10.173,10.173,0,0,1,1.407.69c.184.121.019-.029.784.805l.091.822-.59.562-.983.155a7.307,7.307,0,0,0-1.088-.04,13.966,13.966,0,0,0-2.483.321h-.01a8.513,8.513,0,0,0-2.524.7,9.945,9.945,0,0,0-2.9,2,4.773,4.773,0,0,1-.967.862,5.441,5.441,0,0,1-3.022,1.347l-.421-1.638a8.337,8.337,0,0,1,.609-1.967,4.271,4.271,0,0,1,1.078-1.391,14.012,14.012,0,0,1,3.771-2.648,13.348,13.348,0,0,1,3.95-1.153,8.253,8.253,0,0,1,3.3.571Z" transform="translate(147.055 70.741)" fill="#010101" fill-rule="evenodd"/><path d="M227.441,159.744l.628.567.172.962a14.061,14.061,0,0,1-1.117,3.953c-.1.186.243-.484-.469.933a19.983,19.983,0,0,1-7.252,6.724,12.893,12.893,0,0,1-3.124,1.324,8.9,8.9,0,0,1-2.7.059c-.65-.091-.24.129-1.809-1.121,1.507-1.91.383-.836,3.312-2.548a17.515,17.515,0,0,0,4.426-2.414,21.247,21.247,0,0,0,4.009-4.124c.255-.3,1.034-1.274,1.491-1.967a12.91,12.91,0,0,0,.907-1.5l.674-.7.833-.131Z" transform="translate(144.735 90.357)" fill="#010101" fill-rule="evenodd"/><path d="M107.924,35.64l.743.443c.533,1.581.145-.545.231,7.483.083,8.341.05,7.931-.434,8.678-1.616,1.716-2.545-.345-6.409.874a6.881,6.881,0,0,0-3.324,2.276,5.976,5.976,0,0,0-1.169,4.39l.016.043v.041c.012.038.048.184.083.283A4.121,4.121,0,0,0,99.5,62.22c2.562,1.495,7.231.674,8.707,1.069,1.619.724,1.085,1.617,1.772,4.393a12.957,12.957,0,0,0,4.359,7.505c2.931,2.324,2.9-.947,2.436,11.15-.109,3.376.009,2.629-.457,3.757l-.819.379h0c-1.485-.626-1.172.422-1.831-11.588-3.448-1.6-6.39-5.021-7.662-11.207l-.124-.624a16.3,16.3,0,0,1-8.207-1.409A8.391,8.391,0,0,1,94.36,62.3a7.1,7.1,0,0,1-.745-3.626,10.585,10.585,0,0,1,11.423-9.843,81.171,81.171,0,0,1,.907-8.595c.7-4.169.566-3.424,1.134-4.343l.829-.252Z" transform="translate(59.159 0.485)" fill="#010101" fill-rule="evenodd"/><path d="M126.436,36.394l.788.357.391.84c.038,1.157.838,7.991.931,11.826a13.388,13.388,0,0,1,6.035,1.359,8.209,8.209,0,0,1,4.09,7.323,9.746,9.746,0,0,1-.133,1.586c-.966,5.528-5.65,7.45-11.283,7.543-.345,0-.191-.114-.378.624a15.014,15.014,0,0,1-6.416,9.59c-.271.172-.086-.448-.443,4.714-.359,5.205-.057,3.895-.607,5.172l-.819.374h-.016l-.828-.345c-.559-1.207-.345-.328-.547-3.688-.269-8.448-.172-6.191-.219-6.819a1.741,1.741,0,0,1,.628-1.626,10.874,10.874,0,0,0,3.519-3.459c.016-.029.129-.219.162-.264a16.551,16.551,0,0,0,1.652-3.966c.657-2.212.162-2.881,1.279-3.84,1.014-.619,1.552-.209,4.338-.414a7.759,7.759,0,0,0,4.89-1.724,5.131,5.131,0,0,0,.8-5.735C133.189,53.7,130.8,53.4,128.4,53.31c-1.753-.057-2.835.267-3.574-1.276a4.467,4.467,0,0,1-.141-1.512,106.724,106.724,0,0,1,.548-12.947l.4-.835.793-.345Z" transform="translate(76.076 1.031)" fill="#010101" fill-rule="evenodd"/><path d="M118.241,52.373c-.119,1.788,0,1.653-.476,2.348a4.791,4.791,0,0,1-1.912,1.786A6.552,6.552,0,0,1,110,56.1c-.66-.369-.69-.376-1.164-1.207-.172-.371-.264-.69-.271-.69l-.172-1.679c3.571-.364,2.888.021,4.157.466,1.191.388,1.562-.1,2.522-.264,2.11-.507.526-.453,3.169-.353Z" transform="translate(69.87 12.555)" fill="#010101" fill-rule="evenodd"/><path d="M113.407,42.734c.922,2.424.595,1.178.457,7.014a18.721,18.721,0,0,1-.572,5.486,3.49,3.49,0,0,1-.583,1.533l-.69.4H112l-.74-.345-.517-.862c-1.071-3.55-.872-4.429-.645-9.628a5.3,5.3,0,0,1,.505-2.872c.507-1.057.172-.634,1.66-1.988.014.024,1.117,1.229,1.14,1.259Z" transform="translate(70.977 4.711)" fill="#010101" fill-rule="evenodd"/><ellipse cx="3.174" cy="2.381" rx="3.174" ry="2.381" transform="translate(172.446 51.671) rotate(-87.504)"/><ellipse cx="3.174" cy="2.381" rx="3.174" ry="2.381" transform="translate(189.096 52.399) rotate(-87.504)"/><path d="M123.213,157.369c7.916-1.826,21.588-12.729,19.776,7.376-1.071,11.774-4.438,25.235.083,36.744" transform="translate(80.602 85.315)" fill="none"/><path d="M106.649,59.327a15.921,15.921,0,0,1,1.866.233,11.668,11.668,0,0,0,3.831,1.007c1.153.11,1.724.038,2.405.124,3.326.412,2.459.25,3.65.643l.5.617c0,.019-.221.766-.226.784l-.778.657a8.852,8.852,0,0,1-4.436,1.136,17.664,17.664,0,0,1-5.426-.96,3.985,3.985,0,0,1-2.429-1.724c-.493-.771-.309-.2-.645-2.241,2.272-.376,1.495-.288,1.685-.276Z" transform="translate(67.387 17.626)" fill-rule="evenodd"/><path d="M107.149,60.188a17.1,17.1,0,0,1-1.366-17.659C99.994,41.208,94.913,35.68,93.3,30.035c11.552,6.836,33.226-11.978,47.359-4.152,5.609,3.1,7.941,10.088,6.809,16.207,8.183,3.835,5.641,11.283,1.447,19.285a14.593,14.593,0,0,0-5.105-.769c-.378-5.909.324-11.831-.14-17.745a48.46,48.46,0,0,1-9.607,1.7c-7.355.862-15.533,1.15-22.738-.841a33.044,33.044,0,0,0-3.909,17.152" transform="translate(58.94 -7.986)" fill-rule="evenodd"/><path d="M95.258,29.245c9.542,4.928,25.023-7.305,39.575-6.345,10.11.652,15.611,7.978,15.667,17.088.01,3.014-.767.809,1.991,3.328,5,5.038,3.188,11.045.136,17.459-1.045,2.038-1.366,3.547-3.305,3.3a12.214,12.214,0,0,0-4.743-.726c-2.114-.219-1.921-1.988-1.993-3.831-.128-3.153.205-10.29.1-13.405a45.545,45.545,0,0,1-4.567.722c-17.4,2.069-24.076-.362-24.625-.386-.362-.088-.581-.145-.583-.145a37.686,37.686,0,0,0-1.79,4.276,30,30,0,0,0-1.724,9.414c-.078,1.795.264.967-.266,2.472l-.814.419H108.3l-.862-.295-.424-.824v-.09l-.055-.036a19.64,19.64,0,0,1-3.714-12.471,17.457,17.457,0,0,1,1.009-4.738,19.259,19.259,0,0,1-8.729-6.605A19.85,19.85,0,0,1,92.465,32.1a3.074,3.074,0,0,1-.252-1.724,1.948,1.948,0,0,1,1.933-1.505,2.112,2.112,0,0,1,1.112.369ZM108.2,42.752a1.638,1.638,0,0,1,0,1.112,15.03,15.03,0,0,0-1.2,12.2c.112.345.019.3.15-.55a36.507,36.507,0,0,1,2.453-9.079c1.184-2.738,1.235-3.066,2.15-3.385.184,0-.091-.045.517-.04a42.436,42.436,0,0,0,9.088,1.281,101.448,101.448,0,0,0,19.511-1.65,33.581,33.581,0,0,0,3.31-.862,1.9,1.9,0,0,1,2.04,1.129c.64,1.933.15,11.109.252,16.626a16.152,16.152,0,0,1,2.259.316c.195-.359.588-1.195.776-1.571a22.185,22.185,0,0,0,1.835-4.933c1.007-4.5-.257-6.5-2.807-8.131-1.221-.7-1.229-.5-1.824-1.166-1.012-1.6.436-1.46-.374-7.069a12.486,12.486,0,0,0-5.173-8.2c-11.695-7.395-30.611,7.4-43.5,5.355a16.873,16.873,0,0,0,8.029,7.129C107.113,41.817,107.681,41.6,108.2,42.752Z" transform="translate(58.131 -8.78)" fill-rule="evenodd"/><path d="M192.474,92.794s-16.868,16.638-53.008,21.492c-14.711,1.974-29.726-2.528-42.916-9.038C90.2,102.107,82.545,98.323,78,92.764c1.455-4.426,5.731-8.479,9.24-11.355C95.76,74.431,106.49,68.741,117.6,67.491a15.449,15.449,0,0,0,8.1,7.054c10.255,4.56,21.188,1.053,27.714-7.807,15.162,1.74,32.063,13.659,39.061,26.056Z" transform="translate(47.859 23.005)" fill="#8e4dff" fill-rule="evenodd"/><path d="M184.507,101.733a103.576,103.576,0,0,1-31.883,13.038c-18.966,4.324-34.375,4.624-61.427-9.729A45.982,45.982,0,0,1,77.781,95.29a2.538,2.538,0,0,1-.907-1.764A11.955,11.955,0,0,1,78.6,89.44a25.842,25.842,0,0,1,2.431-3.295,65.937,65.937,0,0,1,14.361-11.6,57.022,57.022,0,0,1,22.257-8.193,2.166,2.166,0,0,1,2.209.562,11.4,11.4,0,0,0,4.169,4.772c8.017,5.4,19.321,5.447,27.8-4.054,1.674-2,1.326-2.148,4.093-1.7,13.981,2.312,30.114,12.79,38.351,26.849a1.255,1.255,0,0,1-.135,1.622l-.015-.016a63.42,63.42,0,0,1-9.609,7.345ZM152.754,71.916a24.1,24.1,0,0,1-19.693,7.147c-7.347-.826-13.621-5-15.745-8.735a55.637,55.637,0,0,0-22.509,9.216,57.005,57.005,0,0,0-11.114,9.483,17.759,17.759,0,0,0-2.636,4.081,31.986,31.986,0,0,0,5.926,4.945A129.819,129.819,0,0,0,107.3,108.225c13.854,5.307,24.269,6.035,33.561,4.747,16.035-2.274,33.716-7.652,47.373-17.028a42.383,42.383,0,0,0,3.507-2.659c-7.474-11.674-22.674-21.981-36.706-23.937a28.3,28.3,0,0,1-2.278,2.567Z" transform="translate(47.045 22.273)" fill="#8e4dff" fill-rule="evenodd"/><path d="M184.9,15.621c17.1,1.362,48.794,5.507,65.08,13.586A52.223,52.223,0,0,1,272.307,49.28a40.771,40.771,0,0,1,4.276,10.69c3.276,14.138-1.354,27.435-10.14,39.121a165.69,165.69,0,0,1-17.383,18.621A249.9,249.9,0,0,1,220.84,140.2c-11.683,8.021-11.464,6.84-8.912,6.724a39.724,39.724,0,0,1,15.055,2.15c6.922,2.359,9.224,8.94,6.552,14.347-6.974,14.1-40.435,10.929-46.244-.852a8.638,8.638,0,0,1-.785-2.262c-24.5,2.186-55.459,8.114-96.238-14.047-10.531-5.788-19.876-11.99-26.759-21.768a65.491,65.491,0,0,1-6.671-11.552,64.456,64.456,0,0,1-2.7-45.692c15.2-47.827,80.882-55.7,130.757-51.625Zm18.826,133.252c.279-1.219-.036-.453,5.7-4.16,19.762-12.545,52.253-38.307,61.065-58.737a41.09,41.09,0,0,0,3.693-16.754,37.727,37.727,0,0,0-11.9-26.93c-7.721-7.31-15.216-10.881-25.381-14-11.669-3.516-28.318-6.116-39.5-7.486-37.328-4.5-90.624-3.7-119.983,19.868a58.075,58.075,0,0,0-20.778,59.575c4.548,18.2,14.055,29.438,28.007,38.211,29.828,18.54,55.7,22.309,87.839,19.4,16.054-1.5,16.188-2.021,17.3-.666a1.833,1.833,0,0,1,.324,1.316l-.012.278v.04c-.374,8.567,28.43,16.017,39.266,5.285,3.9-4.569,2.371-9.655-1.909-11.812a39.585,39.585,0,0,0-10.431-2.705,49.547,49.547,0,0,0-11.928.471v.021a1.222,1.222,0,0,1-1.383-1.214Z" transform="translate(28.443 -14.688)" fill-rule="evenodd"/><path d="M196.013,188.869c-6.935-5.459-16.016-8.523-24.483-10.448-10.728-2.447-32.3-.709-32.5-.517-8.31,7.852-15.952,16.233-25.911,22.193-3.981,2.385-12.9,3.855-10.726-3.621a25.444,25.444,0,0,0-9.34,6.352c4.31,9.547,7.993,17.254,12.338,26.754,4.512-1.838,7.586-2.426,12.1-4.24,13.661,9.2,22.9,26.219,27.9,41.594,1.947-3.291,3.921-6.66,6.122-9.79-2.547-7.188-5.707-21.618,5.966-22.242-.6-8.947,2.181-19.033,13.059-17.83-.4-4.576-.386-9.747,2.241-13.747,3.319-5.052,10.388-2.686,13.68.905,2.805-5,9.555-15.364,9.555-15.364Z" transform="translate(58.763 102.944)" fill="#005180" fill-rule="evenodd"/><path d="M191.479,200.613c-3.359,5.533-3.041,5.888-4.4,5.829-.726-.172-.771-.417-1.121-.724a11.3,11.3,0,0,0-4.493-2.619,7.255,7.255,0,0,0-3.59-.228l-.04.014h-.048a4.483,4.483,0,0,0-1.867.928l-.026.029a12.638,12.638,0,0,0-3.035,8.185c-.233,5.355.548,5.505-.079,6.75a1.71,1.71,0,0,1-1.724.766,10.04,10.04,0,0,0-5.69.945,9.747,9.747,0,0,0-4.412,6.067,19.059,19.059,0,0,0-.628,2.912c-.781,6.136.631,6.617-1.081,7.857-1.7.785-8.892-.659-7.081,12.131a45.336,45.336,0,0,0,2.009,7.848c.434,1.734-.281,1.136-5.552,10.195-.757,1.279-.974,2.014-2.3,2.188a1.945,1.945,0,0,1-1.952-1.34A102.362,102.362,0,0,0,134.075,246a60.788,60.788,0,0,0-16.014-17.666c-1.483.466,1.776-.5-5.919,2.005-3.276,1.034-4.948,1.772-5.517,1.945a1.94,1.94,0,0,1-2.178-1.088c-8.46-18.574-12.5-26.39-12.511-27.745a1.878,1.878,0,0,1,.553-1.183,25.326,25.326,0,0,1,7.057-5.381,22.762,22.762,0,0,1,3.476-1.54,1.955,1.955,0,0,1,2.012,1.224c.269.916.076.964-.129,2.034a2.8,2.8,0,0,0-.06,1.047v.064a.863.863,0,0,0,.026.112v.033a2.119,2.119,0,0,0,.069.209v.016l.016.017.014.033v.016a.646.646,0,0,1,.045.065v.05l.047.05h.016v.016h.016v.016l.016.009h.016l.022.024h.016l.016.017.047.026.016.016c.036.021.017,0,.053.028l.016.016.086.036.022.017.093.034.024.017c.072.029.278.09.345.112h.04a.555.555,0,0,1,.1.028h.04l.071.019h.04l.04.01c4.614.2,7.286-1.836,11.035-4.469,10.15-7.483,19.755-18.1,21.576-19.364,1.759-.76,22.469-1.8,32.737.371,8.71,1.928,19.08,5.662,25.933,11.369l.017-.016c1.228,1.141.605,1.036-6.028,11.961Zm-4.521,2.21c.69-1.279,7.9-12.488,8.226-12.859-6.3-4.614-15.559-7.555-23.212-9.123-5.407-1.331-17.255-1.064-22.809-.852-1.562.084-6.883.366-8.428.555-11.321,10.9-14.088,13.95-22.516,19.933a21.252,21.252,0,0,1-8.766,4.091c-2.267.4-5.226.326-6.9-1.269a4.852,4.852,0,0,1-1.531-2.785,21.237,21.237,0,0,0-4.828,3.547c2.648,5.928,9.955,21.483,11.01,23.843,1.741-.69,7.478-2.414,9.176-3.1,2.359-.862,1.979-1.062,4.979,1.131A64.483,64.483,0,0,1,136.7,242.9a106.139,106.139,0,0,1,9.976,20.256c.116-.186,2.317-3.821,3.488-5.488-2.017-6.285-3.86-15.185.386-20.345a9.579,9.579,0,0,1,5.823-3.25,21.691,21.691,0,0,1,3.793-13.7,11.3,11.3,0,0,1,2.531-2.321,11.966,11.966,0,0,1,6.86-1.933c-.266-5.4.778-12.735,5.436-15.366,2.785-1.588,7.376-1.509,11.962,2.076Z" transform="translate(57.953 102.128)" fill="#005180" fill-rule="evenodd"/><path d="M158.681,300.316a44.042,44.042,0,0,1-18.793-42.135c-14.645,8.29-30.035,12.554-46.751,8.607,2.586,11.464,5.229,22.931,7.747,34.4,6.519-.229,38.659-.612,58.378-.505" transform="translate(58.823 161.641)" fill="#005180" fill-rule="evenodd"/><path d="M141.029,257.07a1.964,1.964,0,0,1,1.619,1.859c-.026.364-.157,1.41-.172,1.6a40.934,40.934,0,0,0,1.086,14.6,44.469,44.469,0,0,0,7.948,16.662h.016a50,50,0,0,0,8.793,8.59l.64.266c1.155,2.726,1.262,1.967-23.661,2.464-25.79.752-7.964.064-35.528.828A1.938,1.938,0,0,1,99.8,302.41c-8.226-36.99-7.919-34.29-7.714-35.368a1.96,1.96,0,0,1,1.991-1.391,54.222,54.222,0,0,0,19.026,1.076,65.75,65.75,0,0,0,20.2-6.095c6.7-3.14,6.24-3.662,7.726-3.562Zm-40.9,13.588c-.188-.022-3.429-.435-3.621-.538,1.335,5.862,5.457,24.024,6.736,29.885,1.5-.433,44.559.053,52.715.184-.2-.114-1.714-1.316-2.633-2.109a41.623,41.623,0,0,1-4.26-4.293,44.1,44.1,0,0,1-10.662-31.335c-11.957,6.21-24.845,9.873-38.275,8.205Z" transform="translate(58.012 160.828)" fill="#005180" fill-rule="evenodd"/><path d="M204.684,177.151a16.124,16.124,0,0,0,2.75,1.612l1.088.557a17.6,17.6,0,0,0,5.862,2.171,22.735,22.735,0,0,0,5.983.309,37.178,37.178,0,0,0,6.99-1.253,12.289,12.289,0,0,0,2.355-.962l.936-.172.759.422h.009l.172.862-.45.84a16.277,16.277,0,0,1-2.535,1.819,18.36,18.36,0,0,1-7.2,2.252,26.318,26.318,0,0,1-10.826-1.1,20.25,20.25,0,0,1-4.059-1.869l-.624-.448a13.7,13.7,0,0,1-2.955-3.448l-.231-.922.3-.757.772-.228Z" transform="translate(138.17 102.733)" fill-rule="evenodd"/><path d="M217.184,179.113c.585,1.114.357.262.829,3.205a46.162,46.162,0,0,1,.319,9.983,2.352,2.352,0,0,1-.281,1.338c-.862,1.238-1.645.914-3.793,1.01a151.238,151.238,0,0,0-18.449,2.1c-2.917.529-1.724.543-3.224.345l-.6-.647c0-.024.091-.862.095-.893l.69-.645a45.2,45.2,0,0,1,15.73-3.812c6.469-.517,5.95-.2,5.96-.455,0-.345.022-1.816.026-2.759a29.234,29.234,0,0,1,.369-5.552c.012-.084.362-2.3.366-2.367l.434-.84.747-.355Z" transform="translate(130.405 104.132)" fill-rule="evenodd"/><path d="M249.672,139.078a22.459,22.459,0,0,1,2.129,1.276c8.76,6.4,8.21,17.081-.631,23.249a25.261,25.261,0,0,1-8.621,3.85,64.342,64.342,0,0,1-3.164,20.6,48.151,48.151,0,0,1-7.8,14.866c.017.217.129,9.128.629,16.907a153.833,153.833,0,0,1,18.857,6.6c2.016.95,1.5.6,2.31,1.491l-.024.912-.678.622c-.186,0-1.122-.017-.936-.017a156.216,156.216,0,0,0-21.035-6.35,2.333,2.333,0,0,1-.983-.257c-.938-.6-.929-1.245-1.034-2.381-.4-3.785-.807-9.162-.979-16.5.029-3.043-.019-2.209,1.514-4.31l.652-.909a44.017,44.017,0,0,0,4.271-7.773,59.013,59.013,0,0,0,4.483-25.043,1.945,1.945,0,0,1,1.371-1.926,21.849,21.849,0,0,0,4.16-1.05c5.591-2.309,10.317-6.01,10-12.028,0-.055-.024-.267-.028-.279a10.393,10.393,0,0,0-1.8-4.852,13.24,13.24,0,0,0-4.19-3.941,13.834,13.834,0,0,0-7.057-2.117l-.85-.345-.378-.8.322-.828c.962-.466.69-.412,1.5-.434a16.94,16.94,0,0,1,7.979,1.764Z" transform="translate(156.28 74.11)" fill-rule="evenodd"/><path d="M206.115,146.531c5.009,2.624,9.812,5.612,15.386,6.936,12.431,2.948,26.857-2.009,36.14-10.483,1.352,13.848,4.1,29.466,19.062,33.225.988-8.6-.036-18.828-3.864-26.706-4.376-8.979-13.84-15.612-23.459-17.833a44.344,44.344,0,0,0-24.766,1.207c-3.276,1.24-6.179,3.435-9.581,4.376-1.414.391-3.436-.255-3.214-2.079a8.276,8.276,0,0,1,2.838-5.143,40.235,40.235,0,0,1,16.207-7.242c8.648-1.6,22.2.129,29.99,4.483a48.621,48.621,0,0,1,18.192,19.868c3.567.172,5.678.785,8.693-1.716,3.61-2.995,1.776-9.31-10.917-10.862a27.746,27.746,0,0,0,6.736-3.117,13.081,13.081,0,0,0,5.319-4.852c2.272-4.554-.912-8.942-5.736-9.455-5.069-.54-10.681,3.221-14.105,6.678,2.5-3.914,5.657-7.493,7.06-12.005,1.807-5.779-.681-9.686-6.431-6.79-4.581,2.305-7.507,7.467-10.283,11.564a39.21,39.21,0,0,0,3.828-9.636c1.059-5.162.138-15.907-8.01-13.416-6.905,2.114-10.705,10.054-12.907,16.9.567-5.212,2.726-17.576.257-22.649a4.964,4.964,0,0,0-8-1.681,12.608,12.608,0,0,0-2.2,2.571c-4.226,6.379-4.266,14.4-4.828,21.75-1.207-5.172-2.816-11.035-6.829-14.828-6.141-5.79-11.245,2.14-11.645,8.029-.388,5.791,1.855,11.026,3.686,16.371-3.3-4.828-5.707-11.957-10.786-15.324-5.319-3.528-9.56,1.748-9.517,7.133.052,6.285,4.788,12.621,8.188,17.705-4.029-3.759-9.24-9.071-15.262-8.867-4.183.141-8.559,9.31-.405,18.2,5.59,6.109,13.186,6.207,20.721,6.878" transform="translate(121.99 36.036)" fill-rule="evenodd"/><path d="M278.028,105.02c2.383,3.569.793,8.5-1.241,12.269l.3-.126c13.547-5.288,20.04,8.569,10.6,15.085-.814.617-3,1.991-3.907,2.507a19.445,19.445,0,0,1,3.367,1.464c5.172,2.824,6.929,8.643,1.29,12.359-2.729,1.752-4.8,1.583-7.957,1.379-1.207-.078-1.207-.029-1.8-.305-1.2-.79-.229-.584-3.481-5.6a49.2,49.2,0,0,0-12.823-13.1c-9.219-5.954-24.749-7.217-32.985-4.871a39.712,39.712,0,0,0-11.671,5.345,7.652,7.652,0,0,0-2.452,2.314,6.38,6.38,0,0,0-.924,2.414,1.264,1.264,0,0,0,.578.064,37.74,37.74,0,0,0,6.84-3.119c15.921-7.971,42.689-3.988,53.182,15.911a41.226,41.226,0,0,1,3.719,11.447,57.275,57.275,0,0,1,.626,15.724c-.14,1.167-.079,1.3-.459,1.95a1.933,1.933,0,0,1-2.2.69,24.072,24.072,0,0,1-4.028-1.438c-10.05-4.841-13.236-14.4-15.1-25.428-.153-1.035-.528-3.648-.631-4.881a45.559,45.559,0,0,1-26.706,9.474c-12.1.076-19.105-5.89-24.04-8.15-.974-1.19.483-.391-6.524-1.207-7.786-.883-13.381-3.288-17.607-9.971a19.04,19.04,0,0,1-1.36-2.685,14.028,14.028,0,0,1-1.074-5.959c.172-3.924,2.429-8.448,6.481-8.55a15.066,15.066,0,0,1,8.467,2.743c-2.138-4.078-3.805-8.331-2.831-12.861,1.417-5.228,4.531-7.223,7.5-7.212,3.654.038,6.509,2.976,8.769,5.838-.081-.283-.157-2.119-.172-2.305-.122-9.867,7.231-17.447,14.173-11.686a20.422,20.422,0,0,1,5.036,6.926,29.512,29.512,0,0,1,4.86-13.824c2.357-3.348,5.912-5.048,9.616-3.376,5.276,2.672,4.883,9.542,4.624,15.454a24.55,24.55,0,0,1,1.734-2.241c6.267-6.762,14.583-7.795,17.293.2a21.194,21.194,0,0,1,.841,8.762,14.791,14.791,0,0,1,5.147-3.059c3.426-1.067,5.745-.1,6.921,1.643ZM239.2,121.077c7.65.117,17.014,1.762,23.543,5.517a50.933,50.933,0,0,1,14.412,13.448,43.565,43.565,0,0,1,3.74,6.035,15.392,15.392,0,0,0,3.607,0,5.878,5.878,0,0,0,3.21-2.033l.026-.029.033-.059.01-.029.05-.086.01-.028.017-.028v-.028l.017-.029.083-.248v-.028l.019-.053v-.029l.009-.026v-.057l.01-.028.012-.284v-.21l-.059-.284-.014-.033v-.066l-.014-.034v-.033l-.057-.136c-.047-.255-.645-1.774-3.866-3.193a25.21,25.21,0,0,0-6.481-1.64,2.024,2.024,0,0,1-1.848-1.159,1.938,1.938,0,0,1,.6-2.369c.605-.381,1.49-.517,3.428-1.366,1.972-.862,6.6-3.478,7.7-5.316a4.416,4.416,0,0,0-2.524-6.969A10.5,10.5,0,0,0,277,121.512,25.552,25.552,0,0,0,271.028,126a1.94,1.94,0,0,1-1.184.564,1.985,1.985,0,0,1-1.279-.321,1.941,1.941,0,0,1-.707-2.372c1.49-2.841,8.621-10.723,7.34-15.862l-.045-.036a.934.934,0,0,0-.021-.091l-.014-.029v-.029l-.016-.029v-.029l-.016-.029v-.028c-.245-.474-.278-.517-.286-.531l-.016-.016v-.016l-.016-.012v-.014l-.016-.012V107.1l-.016-.012-.009-.01-.016-.01v-.01l-.016-.009v-.01h-.031v-.009h-.016v-.009l-.031-.016-.062-.028a1.826,1.826,0,0,0-.726-.114,9.5,9.5,0,0,0-5.417,2.74c-6.457,6.452-6,10.533-9.048,9.666a1.948,1.948,0,0,1-1.245-2.069c.283-1.283,3.559-6.338,4.057-11.048.307-2.931.076-7.71-2.219-9.593-1.9-1.5-5.307.222-7.152,1.691-3.474,2.562-5.948,7.816-7.39,11.9-.748,2.085-.638,2.391-1.7,2.957a1.973,1.973,0,0,1-1.321.062c-3.026-1.226.081-4.5.024-18.431-.01-2.393-.41-5.893-2.586-6.923a2.736,2.736,0,0,0-1.612-.214,5.485,5.485,0,0,0-3.207,2.49c-4.083,6.045-4.31,12.5-4.848,20.305-.083,1.243-.047,1.7-.8,2.4a1.91,1.91,0,0,1-2.359-.012c-1.207-1.15-.464-2.212-2.931-8.71-.1-.219-.438-1.1-.745-1.662-1.09-2.314-3.688-6.055-6.264-6.114a4.538,4.538,0,0,0-3.379,2.241c-4.491,6.578-1.224,13.966,1.272,21.507a1.778,1.778,0,0,1-.419,2.133,1.745,1.745,0,0,1-2.181.09c-2.278-2-6.479-14.283-12.028-16.023a3.217,3.217,0,0,0-3.062.466c-8.1,7.36,5.219,21.38,5.528,23.55a1.519,1.519,0,0,1-2.124,1.516c-1.583-.847-7.714-8.793-14.366-8.835a2.195,2.195,0,0,0-1.35.345c-4.367,3.347-2.866,12.009,2.876,16.761,4.69,4.347,11.681,4.716,17.9,5.264.893.081.55-.019,1.535.5l.19.583c6.509,3.479,11.947,6.569,18.559,7.207a38.935,38.935,0,0,0,19.573-3.429,43.2,43.2,0,0,0,11.593-7.557,1.662,1.662,0,0,1,2.086-.122c1.207,1.019.286,1.19,1.872,9.924a47.439,47.439,0,0,0,3.488,11.621c2.662,5.2,5.469,8.393,11.045,10.531a52.983,52.983,0,0,0-1.924-18.18A30.447,30.447,0,0,0,269.878,148c-6.709-9.607-18.638-15.707-33.768-14.6-10.486.8-13.255,4.154-18.49,6.131a5.938,5.938,0,0,1-4.828.21,4.17,4.17,0,0,1-1.326-.945,3.686,3.686,0,0,1-.938-2.148,8.633,8.633,0,0,1,1.166-4.343,12.264,12.264,0,0,1,5.081-4.828A44.846,44.846,0,0,1,227.6,122.6a37.4,37.4,0,0,1,11.6-1.528Z" transform="translate(121.402 35.226)" fill-rule="evenodd"/><path d="M185.879,187c.534,1.114.345.364.6,2.847a141.291,141.291,0,0,1,.778,16.035c.419,20.987.583,19.368.736,34.166-.172,14.216,0,12.716-1.379,13.412H186.6l-.834-.362c-.509-1.15-.369-.5-.572-2.931-1.253-15.04-1.11-17.069-1.4-26.1-.612-25.862-.647-25.381-.36-30.194.141-2.4.445-5.848.469-6.035L184.3,187l.786-.355h.016Z" transform="translate(124.087 109.837)" fill="#00a3ff" fill-rule="evenodd"/><path d="M250.848,184l.778.383.367.843c.831,8.126.54,41.013.486,42.814a161.23,161.23,0,0,1-1.922,23.874c-.453,3.126-.378,2.586-.916,3.51l-.862.264h-.016c-1.567-.936-.91.41-.529-12.638,1.034-37.414-.36-40.975,1.19-56.277.236-1.991.071-1.379.607-2.445l.8-.331Z" transform="translate(170.8 107.921)" fill="#00a3ff" fill-rule="evenodd"/><path d="M218.628,218.529c1.083,2.069.634.807,1.078,6.076a10.558,10.558,0,0,1-.405,4.94l-.479.957-.662.416h-.016c-.881-.45-.586-.172-1.264-1.255a11.853,11.853,0,0,1-.967-3.7c-.021-.226-.434-5.122-.336-5.766a4.728,4.728,0,0,1,.4-1.11c.345-.719.022-.29,1.435-1.748.019.016,1.2,1.162,1.221,1.188Z" transform="translate(147.478 132.066)" fill-rule="evenodd"/><path d="M131.031,213.822c4.216,4.6.583.562,7.119,9.064,10.069,11.612,9.528,10.383,9.048,12.024l-.8.345-.95-.279c.753,0-4.31-1.379-12.471-12.4a27.789,27.789,0,0,1-3.014-4.667,20.919,20.919,0,0,1-1.009-2.921c.053-1.221-.172-.69.46-1.624h.016l.788-.036Z" transform="translate(84.761 129.158)" fill-rule="evenodd"/><path d="M136.006,205.494a32.963,32.963,0,0,1,2.759,3.591c5.054,9.1,6.021,10.035,7.993,13.288,3.516,6.333,2.912,4.841,3.205,6.281l-.4.769-.85.172-.871-.45c-.753-.778-2.61-2.669-3.647-4.01a125.417,125.417,0,0,1-8.886-14.29,27.243,27.243,0,0,1-1.4-4.255c.052-1.188-.124-.767.507-1.607l.795-.014Z" transform="translate(88.347 123.108)" fill-rule="evenodd"/><path d="M153.353,218.622l-.9-.405a39.123,39.123,0,0,1-4.093-4.166,51.673,51.673,0,0,1-6.11-10.529,12.491,12.491,0,0,1-1.379-6.224c0-.5-.059-.2.286-1.307l.61-.5h.016l.762.184c.757.824.634.657.821,1.035.121.231,1.495,2.71,1.619,3.136,2.691,7.135,4.428,8.462,8.383,15.269,1.157,1.936.862,1.183,1.186,2.49l-.36.786v.009Z" transform="translate(93.384 116.246)" fill-rule="evenodd"/><path d="M163.382,195.809h.016l.591.645c.034,4.2-11.638,26.107-10.264,60.132.11,5.243.814,12.892,1.057,15.878,2.172,20.83,2.971,19.505,2.514,21.614-.016,0-.741.517-.753.517s-.878-.186-.89-.19l-.54-.769a208.942,208.942,0,0,1-4.766-27.693,168.325,168.325,0,0,1,.459-32.225c.5-4.776,1.9-11.588,1.928-11.776A90.247,90.247,0,0,1,160.013,200c1.969-4.117,1.712-3.529,2.495-4.212Z" transform="translate(99.846 116.459)" fill-rule="evenodd"/><path d="M133.178,228.818l.616.638c.05,2.979-.517-.883-3.236,14.078-2.343,12.773-8.621,31.421-4.126,50.573a39.883,39.883,0,0,0,7.326,15.628,32.955,32.955,0,0,0,14.026,10.286,34.276,34.276,0,0,0,15.188,2.179,42.759,42.759,0,0,0,11.766-3.1c11-4.467,17.876-14.416,23.571-24.656,5.862-10.757,4.2-8.852,5.578-10.069l.912.033.622.69c-.053,1.207.083.629-.657,2.305-3.728,8.324-9.052,19.278-15.547,25.887a40.6,40.6,0,0,1-31.692,12.855,37.72,37.72,0,0,1-33.2-25.542,65.387,65.387,0,0,1-3.1-27.113c1.595-16.285,3.526-19.574,5.421-27.6.467-1.786,2.483-11.5,4.967-16.442l.664-.631h.89Z" transform="translate(78.938 140.376)" fill-rule="evenodd"/><path d="M199.67,191.569l.426.8-.29.862c-.912.5-.709.438-1.247.517-7.364,1.05-15.457,6.416-21.354,10.969-10.173,7.838-16.354,16.552-23.793,26.733-.014.012-.757.529-.771.54l-.862-.078-.016-.009-.517-.69c.076-1.116.029-.862.2-1.238a58.356,58.356,0,0,1,11.112-16.762,91.21,91.21,0,0,1,15.85-14.243,44.9,44.9,0,0,1,10.728-5.76c.184-.062,3.06-1.047,3.335-1.047a30.028,30.028,0,0,1,6.307-.893Z" transform="translate(100.904 113.186)" fill-rule="evenodd"/><path d="M254.126,193.068c11.49,3.124,23.814,8.029,33.116,15.726,7.769,6.266,13.155,12.859,18.693,25.275,10.94,23.3,14.931,47.094,16.824,72.76.319,5.605,1.467,11.724,2.443,20.124a64.723,64.723,0,0,1,.335,12.009l-.417.833-.862.312h-.017l-.816-.409-.319-.862c.355-8.174-1.912-17.673-2.914-24.269-1.793-10.905-1.959-24.7-6.379-44.6a155.785,155.785,0,0,0-8.621-28.012c-3.224-7.512-7.686-17.3-13.24-23.368a57.967,57.967,0,0,0-5.021-4.953c-8.748-7.874-21.676-14.154-33.519-18.276l-.69-.6c0-.026-.09-.878-.088-.9l.578-.674Z" transform="translate(174.325 114.489)" fill-rule="evenodd"/><path d="M266.769,291.761c-.766-.883-.564-.419-1.921-3.509-.862-1.99-.59-1.186-3.534-11.323a9.56,9.56,0,0,1-.419-4.221l.826-1.472,1.474.826a18.715,18.715,0,0,1,1.512,2.648c.1.267,2.862,9.626,3.126,10.852.138.605.422,2.676.443,2.974.193,2.241.229,1.514-.038,2.835l-.628.569Q267.19,291.854,266.769,291.761Z" transform="translate(180.253 171.096)" fill-rule="evenodd"/><path d="M176.508,323.031c-3.717-31.552-10.317-64.366,4.891-93.993,15.317-3.535,108.119-3.931,138.278-1.379,10.581,32.268,3.39,65.12-2.857,97.448" transform="translate(115.818 138.35)" fill="#00a3ff" stroke="#00a3ff" stroke-width="1" fill-rule="evenodd"/><path d="M318.784,226.4c2.2.141,2.212.153,2.769.462.807.624.776,1.045,1.271,2.557,9.667,31.633,2.831,62.76-3.7,95.229-.376,1.826-.172,1.317-.831,2.3l-.9.191h-.016l-.764-.517c-.269-1.29-.3-.312.371-3.957,5.609-30.8,4.722-28.907,4.907-28.907,3.166-23.15,3.59-41.683-2.867-63.437-.021,0-.967-.076-7.257-.459-28.131-1.228-56.513-1.274-83.177-.79-5.871.109-39.483.895-45.071,2.507a85.476,85.476,0,0,0-8.178,28.537c-3.026,27.569,4.007,60.778,2.9,64.484l-.783.45h-.009l-.862-.252-.459-.791c-4.466-32.08-11.179-65.194,3.983-94.312.928-1.9,1.009-1.7,5.586-2.386,27.835-3.169,109.031-2.941,133.081-.907Z" transform="translate(115.012 137.533)" fill="#00a3ff" fill-rule="evenodd"/><path d="M124.933,112.637c.195.128.016.133.943-.138,6.667.567,13.923,9.054,12.276,15.419l-.021.1c-2.371,9.16-14.931,6.3-19.873-1.859a12.359,12.359,0,0,1-1.879-5.173,7.781,7.781,0,0,1,.486-3.885,6.874,6.874,0,0,1,8.067-4.469ZM124.638,115a4.352,4.352,0,0,0-2.029.44,4.655,4.655,0,0,0-2.331,3.747,1.221,1.221,0,0,1-.026.222c-.445,2.895,2.3,7.947,8.055,10a6.658,6.658,0,0,0,3.5.328,3.636,3.636,0,0,0,2.555-2.693,5.355,5.355,0,0,0-.2-3.119,15.9,15.9,0,0,0-1.552-3.309,12.069,12.069,0,0,0-7.291-5.852Z" transform="translate(75.606 56.112)" fill="#010000" fill-rule="evenodd"/><path d="M134.265,106.817c3.405.072,6.971,4.105,6.786,8.324-.222,5.116-7.059,8.1-11.454,1.607a6.173,6.173,0,0,1-.452-6.39,5.207,5.207,0,0,1,.728-1.022c1.457-1.357,1.012-.636,1.36-1.335A4.243,4.243,0,0,1,134.265,106.817Zm-1.207,2.943-.116.253a2.957,2.957,0,0,0-.65,1.229v.04l-.017.038a2.516,2.516,0,0,0-.066.405l-.009.036v.686l.021.105v.036a.765.765,0,0,0,.019.095v.012l.012.072v.036c.022.124.031.172.065.317v.01c0,.047.031.172.038.226l.014.038.012.076.016.038v.04l.016.038v.038l.016.04v.038c.75,2.043,2.186,2.905,3.148,2.85a2.012,2.012,0,0,0,1.067-.429l.083-.072v-.016a1.166,1.166,0,0,0,.109-.122V115.9l.017-.016.017-.033.017-.017.052-.109.017-.019v-.021l.017-.021v-.041l.043-.11v-.024l.017-.048v-.055l.01-.026v-.028l.01-.028v-.028l.01-.028v-.059l.01-.028v-.614l-.012-.076v-.038c-.222-1.955-2.1-5.281-4-4.672Z" transform="translate(84.404 52.029)" fill="#010000" fill-rule="evenodd"/><path d="M160.718,111.508a13.214,13.214,0,0,1,2.769.426,8.621,8.621,0,0,1,6.24,5.019c1.869,4.15-1.048,8.135-6.752,7.107A13.909,13.909,0,0,1,156.6,121.3c-4.185-3.772-2.1-9.826,4.122-9.793Zm.948,3.2a7.759,7.759,0,0,0-1.991.659,3.489,3.489,0,0,0-.357.184c-.69.388-.664.447-.831.631a.733.733,0,0,0-.05.067l-.009.009v.012l-.017.019v.031l-.017.021v.041l-.009.01v.536l.014.045V117l.014.048v.024c.019.066.04.15.055.216l.014.026.022.072.014.026.014.048.016.024v.024l.014.024v.022l.045.072v.024l.09.145.022.024.029.048.022.024.016.024.022.024.016.024.045.05.016.024c1.586,1.685,5.862,2.793,7.214,1.995l.066-.038v-.01l.033-.017.016-.017.017-.009c.067-.066.043-.04.083-.078l.016-.014.016-.016v-.121l.009-.012v-.036l.017-.026v-.284a3.09,3.09,0,0,0-.269-1.484,6.552,6.552,0,0,0-2.709-3.276h-.016a5.7,5.7,0,0,0-1.709.114Z" transform="translate(103.197 55.426)" fill="#010000" fill-rule="evenodd"/><path d="M179.633,181.732a19.644,19.644,0,0,1-8.355-5.481c-5.624,8.805-10.938,16.059-17.864,25.785-1.552,2.179-4.962,7.491-3.224,10.31,2.891,4.71,8.347-2.538,10.317-5.257,7.55-10.462,10.935-14.976,19.159-25.48" transform="translate(99.789 102.311)" fill-rule="evenodd"/><path d="M172.418,175.264c.786.229.845.4,1.371,1.016a18.757,18.757,0,0,0,6.593,4.852l.884.224.433.805c-.162.583-.138.422-.117.7l-.1.1-.033.121C163.57,207.74,162.789,209.637,159.63,213a9.943,9.943,0,0,1-5.943,3.576,4.616,4.616,0,0,1-4.138-2.178,6.657,6.657,0,0,1-.486-6.005c1.3-4.231,4.609-8.122,11.914-18.428,10.459-15.047,9.788-14.845,11.442-14.7Zm-19.5,33.906a5.229,5.229,0,0,0-.378,2.509v.033c.021.069.04.117.072.217l.009.016.017.031v.04a2.933,2.933,0,0,0,.24.333q.066.081.138.157h.017l.016.016.01.014h.033l.024.021h.017l.017.016.017.016h.016l.033.014h.079l.191-.014.022-.01h.031l.024-.01h.062l.024-.01h.022l.071-.028h.022c.072-.024.038-.017.11-.04l.022-.017a3.153,3.153,0,0,0,.469-.226c2.641-1.566,5.479-5.876,7.329-8.424,4.924-6.826,11.479-14.748,16.562-20.862a20.585,20.585,0,0,1-2.631-1.179,18.659,18.659,0,0,1-3.19-2.1c-7.738,12.85-18.1,25.03-19.53,29.5Z" transform="translate(98.962 101.573)" fill="#010000" fill-rule="evenodd"/><path d="M207.413,120.2a53.966,53.966,0,0,1,52.5,54.034,57.667,57.667,0,0,1-1.76,14.159v.024A55.571,55.571,0,0,1,198.5,229.8a52.783,52.783,0,0,1-13.5-3.147,55.611,55.611,0,0,1-36.237-51,54.17,54.17,0,0,1,5.26-24.269,55.208,55.208,0,0,1,9.547-13.993A54.52,54.52,0,0,1,207.413,120.2Zm-8.586,4.36a50.289,50.289,0,0,0-39.247,28.878,49.68,49.68,0,0,0-4.3,25.042,49.171,49.171,0,0,0,98.145-2.157,51.9,51.9,0,0,0-.438-8.709,48.435,48.435,0,0,0-5.152-15.954,50.877,50.877,0,0,0-22.043-22.069,44.725,44.725,0,0,0-26.957-5.031Zm8.586-4.355C206.663,120.191,206.66,120.189,207.413,120.206Z" transform="translate(99.098 61.616)" fill="#010000" fill-rule="evenodd"/><ellipse cx="9.524" cy="7.143" rx="9.524" ry="7.143" transform="translate(305.65 239.397) rotate(-87.504)"/><path d="M191.24,141.5a10.118,10.118,0,0,1,3.522.479c3.99,1.528,6.84,5.621,6.6,11.217a16.125,16.125,0,0,1-.778,4.541,11.552,11.552,0,0,1-7.569,7.781,8.919,8.919,0,0,1-8.417-2.257,12.216,12.216,0,0,1-3.016-4.6C178.538,150.791,183.469,141.163,191.24,141.5Zm.093,4.047c-3.852.69-4.95,6.135-4,9.923a4.926,4.926,0,0,0,3.05,3.835h.04l.031.01h.11l.04.01h.445a4.731,4.731,0,0,0,3.174-3.031c1.857-4.114-.386-10.036-2.89-10.778ZM191.6,141.544Z" transform="translate(122.21 77.137)" fill="#010000" fill-rule="evenodd"/><path d="M205.683,141.863l.247.909a90.292,90.292,0,0,1-.9,10.69c-.7,5.578-.678,8.435-2.321,22.23a18.966,18.966,0,0,0-.607,4.643l.012.081v.04a2.192,2.192,0,0,0,.122.474l.016.016v.024l.016.017v.024l.014.024.016.017c.214.359.841.64,1.885.862.6.114.24-.041,1.279.533l.305.831v.009l-.415.791c-.974.371-.786.355-1.428.328a5.028,5.028,0,0,1-4.445-2.117,5.734,5.734,0,0,1-.69-2.5c-.214-4.688,1.288-14.766,1.628-19.1.234-2.155.024-2.157,1.064-10.209a41.055,41.055,0,0,1,2.112-8.178l.579-.729.819-.195c.026,0,.672.469.695.484Z" transform="translate(135.315 77.058)" fill="#010000" fill-rule="evenodd"/><path d="M187.248,127.455a10.909,10.909,0,0,1,5.474,1.422,5.826,5.826,0,0,1,2.826,4.064c1.1,7.069-10.664,14.257-15.819,18.661-2.95,2.61-5.564,5.062-9.483,5.6-5.438.307-7.181-5.038-6.317-10.364a12.736,12.736,0,0,1,1.452-4.147,29.656,29.656,0,0,1,15.114-13.75c2.491-1.005,2.117-.862,3.005-.822l.41-.293a13.552,13.552,0,0,1,3.338-.371Zm-2.86,2.759-.528-.117a41.457,41.457,0,0,0-11.343,9.093,24.912,24.912,0,0,0-4.229,6.457,8.992,8.992,0,0,0,.04,6.936v.024l.022.024.029.05.016.016.029.05.016.016.016.024.029.034.016.024.016.016.022.017v.017l.024.016.06.067h.016l.029.033h.016l.016.017h.016l.016.016h.016l.016.017.047.026.014.016.155.086H169a.326.326,0,0,0,.071.034h.016a.172.172,0,0,1,.04.017h.062a.174.174,0,0,0,.04.017h.047l.024.01h.071l.326.014h.174a6.933,6.933,0,0,0,2.307-.79,18.821,18.821,0,0,0,3.364-2.443c8.3-7.1,12.519-9.25,15.69-13.838a8.473,8.473,0,0,0,.69-1.264,3.886,3.886,0,0,0,.3-1.034l.01-.038v-.112l.01-.221v-.2l-.014-.064v-.031l-.014-.066v-.031c-.024-.114-.041-.188-.052-.248l-.016-.024-.014-.064-.014-.026v-.031l-.016-.024V132.7a.56.56,0,0,1-.029-.057v-.033a2.958,2.958,0,0,0-1.045-1.207,6.622,6.622,0,0,0-.579-.374l-.048-.019-.038-.024a10.2,10.2,0,0,0-5.972-.772Z" transform="translate(109.936 66.973)" fill="#010000" fill-rule="evenodd"/><path d="M168.136,150.769c.921.559.766.412.862.69.416-.036.153-.062.617.067a7.3,7.3,0,0,1,1.581.728,8.448,8.448,0,0,1,3.769,6.09,11.75,11.75,0,0,1-.7,6.11,8.435,8.435,0,0,1-13.009,4.128c-3.467-2.354-4.341-7.335-2.941-11.266a9.284,9.284,0,0,1,5.862-6.347,7.857,7.857,0,0,1,3.962-.2Zm-.31,2.378a5.211,5.211,0,0,0-2.205.667,7.9,7.9,0,0,0-2.516,2.528,7.541,7.541,0,0,0-.917,1.724,13.91,13.91,0,0,0-.4,1.348c-.591,2.4.1,5.385,2.352,6.347a4.912,4.912,0,0,0,3.521.345,5.357,5.357,0,0,0,3.029-3.181,9.521,9.521,0,0,0,.534-1.517,9.874,9.874,0,0,0,.307-2.5,6.725,6.725,0,0,0-.578-2.759,4.7,4.7,0,0,0-2.445-2.443l-.586-.572a.47.47,0,0,1-.1.016Z" transform="translate(105.558 83.738)" fill="#010000" fill-rule="evenodd"/><path d="M32.249,134.561a42.9,42.9,0,0,1,14.088,2.847c6.126,2.21,5.048,1.724,5.952,2.524l.105.862-.009.016-.571.666-.91.128a91.648,91.648,0,0,0-17.476-3.1,9.232,9.232,0,0,0-4.795.657l-.041.014A7.931,7.931,0,0,0,25.9,141.9H25.89a29.678,29.678,0,0,0-3.031,8.319A76.47,76.47,0,0,0,21.2,172.974c.321,4.552,1.074,10.228,4.585,13.1,4.31,3.543,12.952,2.586,18.521,1.705,4.757-.678,3.429-.779,4.954-.435l.517.753-.2.89-.769.531a99.33,99.33,0,0,1-12.324,2.266c-5.45.567-11.943-.5-15.207-4.872-5.735-6.881-4.536-27.242-2.55-36.08,1.2-5.362,2.857-11.724,7.443-14.754a8.92,8.92,0,0,1,2.633-1.172A12.932,12.932,0,0,1,32.249,134.561Z" transform="translate(3.748 72.115)" fill="#010000" fill-rule="evenodd"/><path d="M28.274,138.388a14.281,14.281,0,0,1,3.126,4.828c1.471,3.824,1.652,9.7,1.664,13.793a69.6,69.6,0,0,1-1.981,15.554v.016c-.553,2.129-.381,1.4-.569,2.105-1.012,2.988-1.993,6.021-4.69,7.931l-.907.231-.793-.424-.217-.852.419-.848c1.552-1.391,2.374-4.838,2.731-6.9,1.54-8.448,2.733-14.483,1.85-23.519q-.326-3.039-.952-6.035a14.293,14.293,0,0,0-1.54-4.429l-.181-.921.381-.747.828-.2Z" transform="translate(8.689 74.59)" fill="#010000" fill-rule="evenodd"/><path d="M29.576,141.4c-4.424,6.714-5.066,13.567-5.438,20.711a31.753,31.753,0,0,0,.081,4.509c.131,1.379.164,5.71,1.5,6.724.193.152,1.035-.638,1.188-.805,3.429-3.695,3.659-17.909,3.671-22.973-.016-.931.041-6.981-2-6.148" transform="translate(8.823 77.073)" fill-rule="evenodd"/><path d="M31.033,140.878l.016.009.46.726c-.159,1.207-.041.728-.4,1.46,1.54,1.2,1.816,5.44,1.869,7.4.374,5.979.076,17.711-3.029,22.85-1.074,1.626-2.893,3.205-4.555,2.081-1.583-1.191-1.985-3.816-2.14-5.933a53.577,53.577,0,0,1-.276-6.24c.388-8.9,1.005-14.971,6.416-22v-.009l.791-.481Zm-3.905,17.973a57.548,57.548,0,0,0-.259,6.486c0,.291.262,4.285.362,4.79,2.017-5.264,2.8-20.711,2.517-23.84a51.593,51.593,0,0,0-2.621,12.564Z" transform="translate(8.014 76.593)" fill="#010000" fill-rule="evenodd"/><path d="M70.095,133.8c.091.021,32.09,8.2,33.073,8.486,8.921,2.431,10.973,3.005,13.169,4.062a11.981,11.981,0,0,1,4.424,3.481c2.395,3.095,3.1,7.8,3.295,11.7a26.18,26.18,0,0,1-.5,6.516,69.327,69.327,0,0,1-2.5,7.914l-.6.69-.886.1q-.343-.3-.69-.586c-.191-1.662-.283.345,1.5-6.9a22.523,22.523,0,0,0,.517-3.807c.172-3.979-.738-11.073-3.4-13.621-1.883-3.1-19.711-6.835-38.621-11.724-6.923-1.791-17.264-4.938-24.4-4.36a6.1,6.1,0,0,0-3.766,1.838,27.2,27.2,0,0,0-2.414,2.731,35.941,35.941,0,0,0-4.414,7.586,54.139,54.139,0,0,0-4.026,16.912,51.035,51.035,0,0,0,1.25,16.514,16.035,16.035,0,0,0,2.99,6.319c4.838,5.847,17.393,4.283,24.916,3.54h.009l.893.269.459.791v.016l-.252.878-.816.466c-.793-.034-10.845,2.053-18.757.788-10.588-1.693-12.893-9.573-14.407-19.949a55.649,55.649,0,0,1,6.424-32.559,28.2,28.2,0,0,1,7.285-8.579,10.481,10.481,0,0,1,3.009-1.207c4.838-1,10.748.293,17.231,1.695Z" transform="translate(17.317 70.087)" fill="#010000" fill-rule="evenodd"/><path d="M36.344,146.367v-.031l.047.026.055.017v-.031l.1.036v-.04a.429.429,0,0,0,.095.028v-.04l.071.019-.014-.041.078.021-.014-.041h.071l-.014-.04h.064l-.014-.04.022.009h.033l-.022-.041h.047l-.029-.041h.029a.433.433,0,0,0-.029-.041l-.016-.016h0l.016.016-.016-.016.016.016v-.009l.014.017h.016l.016.017h.016v.009l.062.034h.016a10.84,10.84,0,0,0,1.4.371c.4.172.453.286.759.438.84.669-.172-.314,1.81,1.676-1.509,1.14-1.631,1.357-2.931,1.667a1.679,1.679,0,0,1-.659-.028,5.8,5.8,0,0,1-3.7-1.941v-.009a1.936,1.936,0,0,1,.1-1.9l2.383-.172Z" transform="translate(15.657 80.461)" fill="#010000" fill-rule="evenodd"/><path d="M39.929,155.969c.517.29.012-.153,1.56,1.419a7.388,7.388,0,0,1-2.39,1.762l-.243.109h-.009a1.731,1.731,0,0,0-.226.086,4.76,4.76,0,0,0-1.8.581l-.026.022-.024.016h-.009l-.04.022-.024.022-.05.029-.024.024-.024.014-.043.038-.066.06-.026.016-.057.053h-.048l-.033.014h-.04l-.669.017c-.431-.019.164.316-2.221-1.336v-.016c.062-1.424.253-1.5,1.019-2.085a6.885,6.885,0,0,1,1.95-.979,4,4,0,0,1,3.557.11Z" transform="translate(15.565 87.28)" fill="#010000" fill-rule="evenodd"/><path d="M51.174,136.137l.052.067h.016a18.583,18.583,0,0,1,3.952,6.654c.472,1.645.383,1.072.374,1.255.06.231.216.924.255,1.109a55.67,55.67,0,0,1,.943,14.624,50.143,50.143,0,0,1-3.4,15.7c-1.552,3.733-3.51,8.916-7.54,9.31-1.034-.045-.617.138-1.741-.517l-.271-.862v-.016l.447-.767.886-.3h.334l.072-.021h.024s.184-.064.233-.078l.017-.016a.2.2,0,0,0,.04-.014l.024-.016h.024a.386.386,0,0,0,.083-.043l.016-.016c.307-.088.953-.717,1.65-1.971V180.2a32,32,0,0,0,2.012-5.354A55.675,55.675,0,0,0,52.529,163.3a54.748,54.748,0,0,0,.081-13.54,49.97,49.97,0,0,0-1.064-5.838,24.138,24.138,0,0,0-2.274-6.335l-.172-.921.407-.745.835-.186Z" transform="translate(23.103 72.97)" fill="#010000" fill-rule="evenodd"/><path d="M52.542,139.2c-4.969,2.46-6.96,8.054-8.143,13.1-.822,3.478-1.609,12.495-.928,15.648.626,3.228,3.036,9.721,5.776,7.45,5.345-4.431,5.531-20.319,5.279-27.273-.095-2.728-.272-6.295-2.326-8.4" transform="translate(22.668 75.48)" fill-rule="evenodd"/><path d="M54.43,139.117v.016l.043.843A10.937,10.937,0,0,1,56.6,145.4a73.452,73.452,0,0,1,.555,7.491,57.242,57.242,0,0,1-1.695,17.028c-.922,3.431-3.257,8.526-6.736,8.374-2.974-.131-4.722-4.095-5.648-6.928-1-3.486-1.255-4.424-.738-12.035.079-1.814.571-4.864.648-5.405,1.266-6.45,3.719-12.6,9.731-15.29.184-.069-.022-.038,1.034-.072Zm-7.61,15.507a66.228,66.228,0,0,0-.8,8.235,36.969,36.969,0,0,0,.122,4.867,16,16,0,0,0,2.716,6.569l.024.017a5.322,5.322,0,0,0,.69-.726c3.981-4.545,4.741-25.419,3.9-29.531A8.343,8.343,0,0,0,53,142.438a5.4,5.4,0,0,0-.395-.8c-3.429,3.16-4.738,8.019-5.783,12.983Z" transform="translate(21.843 75.019)" fill="#010000" fill-rule="evenodd"/><path d="M50.783,144.659a6.5,6.5,0,0,1-.562,3.059c-2.241,6.085-.905,4.324-3.26,10.464L46.37,159l-.767.276h-.016l-.674-.453a3.927,3.927,0,0,1-.433-1.886,16.179,16.179,0,0,1,0-3.081A41.787,41.787,0,0,1,46.6,146.3a4.827,4.827,0,0,1,1.495-2.214c.709-.65.24-.412,2.174-1.035Z" transform="translate(23.533 78.272)" fill="#fff" fill-rule="evenodd"/><path d="M28.784,152.706a9.357,9.357,0,0,1-.884,3.719c-.369.847-.016.395-1.574,1.831-1.241-1.59-1.079-1.238-1.259-2.069a13.335,13.335,0,0,1,.053-5.8c.222-2.116.214-2.153.388-2.533a10.631,10.631,0,0,1,.791-1.2l1.324-1.047c2,2.514,1.7,2.014,1.16,7.092Z" transform="translate(9.317 80.125)" fill="#fff" fill-rule="evenodd"/><path d="M89.484,149.45a5.314,5.314,0,0,1,3.574,1.1c2.791,2.04,3.276,6.379,2.809,9.728-.8,5.536-4.395,8.236-8.438,8.06a6.582,6.582,0,0,1-2.05-.5l-.69-.657-.105-.862.576-.634c1.76-.276,1.819-.01,2.772-.371a4.562,4.562,0,0,0,1.5-.841,7.229,7.229,0,0,0,2.112-2.886c.771-1.862.895-6.4-.541-7.642v-.016l-.022-.017-.028-.055c-.01,0-.238-.205-.245-.209a3.1,3.1,0,0,1-.293-.2H90.4a6.138,6.138,0,0,0-.7-.436,4.639,4.639,0,0,0-.966-.44c-.429-.172-1.3-.431-1.49-.484l-.821-.505-.317-.729.381-.7.862-.44h.04a9.947,9.947,0,0,1,2.1-.266Z" transform="translate(52.629 82.895)" fill-rule="evenodd"/><path d="M138.793,192.9c.262,1.493.614.914-4.926,5.662-2.522,2.193-14.945,11.636-22,16.136-.033.024-.447.319-.467.329l-.9.286-.783-.264-.291-.767.269-.91v-.009c.172-.2-.031-.033,1.426-1.883a24.593,24.593,0,0,1,5.676-4.828c9.124-6.493,10.078-8.262,20.255-14.021l.969-.172Z" transform="translate(70.617 114.051)" fill-rule="evenodd"/><path d="M213.4,262.971a16.551,16.551,0,0,1,2.56,1.779c3.621,4.121,6.257,5.705,9.386,8.847,1.335,1.345.743.5,1.533,1.822l-.076.829-.71.447-1-.083a21.834,21.834,0,0,1-4.71-2.39,56.932,56.932,0,0,1-5.921-5.39,9.516,9.516,0,0,1-2.855-4.31l-.016-.024.145-1.678Z" transform="translate(144.605 165.002)" fill-rule="evenodd"/></svg>
