<svg xmlns="http://www.w3.org/2000/svg" width="500" height="308.686" viewBox="0 0 500 308.686"><circle cx="6.733" cy="6.733" r="6.733" transform="translate(32.253 192.127)" fill="#fff"/><path d="M147.715,135.21H394.267V311.85H147.715Z" transform="translate(98.345 -6.367)" fill="#00a3ff"/><path d="M214.018,72.865,267.24,72.7l.1,32.521-53.224.169Z" transform="translate(146.358 -51.636)" fill="#52bbef"/><path d="M334.934,66.452H223.555A26.688,26.688,0,0,0,196.908,93.1v.572a26.688,26.688,0,0,0,26.641,26.647h75.069l19.555,26.724,1.5-26.724h15.257A26.688,26.688,0,0,0,361.58,93.671V93.1a26.642,26.642,0,0,0-26.652-26.647Z" transform="translate(133.968 -56.158)" fill="#fff"/><circle cx="17.836" cy="17.836" r="17.836" transform="translate(430.938 19.607)" fill="#ffdc00"/><path d="M7.665,62.339H263.386V259.9H7.665Z" transform="translate(-3.07 -59.136)" fill="#5c00ff"/><path d="M137.337,164.514l15.095-53.569,87.628,24.69L224.965,189.2Z" transform="translate(90.83 -23.938)" fill="#5c00ff"/><path d="M141.275,222.351a37.264,37.264,0,0,0-37.241,37.241,37.264,37.264,0,0,0-37.241-37.241,37.265,37.265,0,0,0,37.241-37.241A37.265,37.265,0,0,0,141.275,222.351Z" transform="translate(39.746 29.767)" fill="#fff"/><path d="M328.53,281.043H277.242l-5.872-28.938a17.831,17.831,0,0,0-10.531,2.507l-.286.143a17.976,17.976,0,0,1-23.352-4.3l-2.069-2.65a17.978,17.978,0,0,0-23.926-3.94l-2.586,1.648,5.084-23.638.072-.431,5.8-27L262.2,206.405l-5.874-28.653h51.288Z" transform="translate(142.449 24.439)" fill="#5c00ff"/><circle cx="17.979" cy="17.979" r="17.979" transform="translate(428.79 108.141)"/><path d="M277.015,183.509l-.143.288a30.58,30.58,0,0,0-3.793,19.41v.072H261.259l-.286-1.5a22.742,22.742,0,0,0-9.526-14.684l-.143-.143a23.024,23.024,0,0,1-9.528-14.684l-.072-.286h-6.947a5.183,5.183,0,0,1-5.159-5.159v-.143a5.183,5.183,0,0,1,5.159-5.157h5.016L236.265,142.6l44.7,22.993a30.14,30.14,0,0,1-3.947,17.916Z" transform="translate(157.641 -1.016)" fill="#fff"/><path d="M100.591,98.549l7.521,5.014a6.678,6.678,0,0,1,2.221,8.671l-.071.143a6.688,6.688,0,0,1-8.883,2.793L69,98.612,55.036,90.376a12.069,12.069,0,0,1-5.8-12.321V77.84a12.047,12.047,0,0,1,14.684-9.884l49.352,11.467a5.629,5.629,0,0,1,1.724,10.243l-14.4,8.883" transform="translate(26.921 -55.304)"/><path d="M195.446,163.668l-12.893,19.34a15.2,15.2,0,0,1-24.569,1l-21.56-27.36-20.988,65.109H18.591L52.9,115.1h86.315l31.8,43.909,6.09-9.169Z" transform="translate(4.842 -20.928)"/><path d="M176.646,148.281l-.071.143a8.1,8.1,0,0,1-10.029,5.731l-.143-.072a7.414,7.414,0,0,0-7.736,2.507l-.143.143a25.712,25.712,0,0,1-25.357,9.31l-.645-.143-3.724,5.588-18.266-13.9L145.994,104.3,169.7,123.138l-3.881,13.61,5.372,1.791A8.019,8.019,0,0,1,176.646,148.281Z" transform="translate(71.42 -28.75)" fill="#fff"/><path d="M72.127,136.393A18.764,18.764,0,0,0,90.608,120.7L93.9,100.5,64.677,85.6,62.745,97.562a7.586,7.586,0,0,0-2.364,14.828l-3.94,24.072h15.69Z" transform="translate(31.245 -42.292)" fill="#fff"/><path d="M49.252,115.06l17.693,47.062L107.7,115.06H49.252Z" transform="translate(27.044 -20.959)" fill="#ffdc00"/><path d="M247.414,216.091l-5.8,27.005-32.519-10.172a32.466,32.466,0,0,1-22.707-32.233l.359-9.528-4.3-2.721a19.714,19.714,0,0,1-9.026-13.467L170.2,156.637a7.414,7.414,0,0,1,6.16-8.595h.145a7.383,7.383,0,0,1,8.379,5.945l3.653,19.483,9.814,5.66,7.586-14.183a7.6,7.6,0,0,1,10.386-3.081l.143.072a7.659,7.659,0,0,1,3.079,10.386l-7.807,14.326,1.5.788A24.31,24.31,0,0,1,226.133,210v.143Z" transform="translate(114.545 2.863)" fill="#fff"/><path d="M278.2,165.6l-44.7-23h42.047l2.586,21.919c-.009.367.064.724.064,1.083Z" transform="translate(160.471 -1.016)"/><path d="M30.338,204.3l20.824-64.714,2.074.667L32.414,204.97Z" transform="translate(13.348 -3.196)" fill="#fff"/><path d="M62.1,164.782a6.464,6.464,0,1,1,6.466-6.464,6.464,6.464,0,0,1-6.466,6.464Zm0-10.75a4.284,4.284,0,1,0,4.287,4.281,4.293,4.293,0,0,0-4.287-4.281Z" transform="translate(31.668 5.686)" fill="#fff"/><path d="M90.713,86.063l.291.145H63.766l-3.995-2.033-.217-.145H91l-.291.217Z" transform="translate(34.505 -43.429)" fill="#fff"/><path d="M46.135,221.246H43.883l16.705-52,7.264-8.136,39.8-45.9h2.833L69.448,162.487l-6.9,7.845L46.135,221.246Z" transform="translate(23.157 -20.855)" fill="#fff"/><path d="M214.285,71.161l.145,35.153,56.145-.145-.145-35.153Zm28.1,19.683L218.716,73.335l47.355-.147Zm-8.134-3.276-17.722,15.253-.072-28.4Zm1.815,1.309,6.391,4.721,6.319-4.721L266.5,103.983l-48.083.145ZM250.523,87.5l17.722-13.219.072,28.4Z" transform="translate(146.551 -52.853)"/><circle cx="2.541" cy="2.541" r="2.541" transform="translate(406.086 156.014)"/><circle cx="2.397" cy="2.397" r="2.397" transform="translate(455.548 29.707)"/><circle cx="2.397" cy="2.397" r="2.397" transform="translate(442.765 29.779)"/><path d="M67.378,102.65H65.2a6.972,6.972,0,1,0,13.945,0H76.964a4.793,4.793,0,1,1-9.586,0Z" transform="translate(38.593 -29.945)"/><path d="M169.753,75.5l17.722,57.452,15.833-21.426.219,28.834,32.974-3.05L218.926,154.89l1.524,1.524,21.862-21.79-36.605,3.341-.219-32.974-17.214,23.169L168.446,63.809l-5.3,70.453,2.179.145L169.753,75.5Z" transform="translate(109.517 -58.071)"/><path d="M104.479,185.6H102.3A36.724,36.724,0,0,1,65.62,222.274v2.179A36.764,36.764,0,0,1,102.3,261.133h2.179a36.764,36.764,0,0,1,36.679-36.679v-2.179A36.724,36.724,0,0,1,104.479,185.6Zm-1.09,66.379a38.986,38.986,0,0,0-28.621-28.621,38.986,38.986,0,0,0,28.621-28.621,38.986,38.986,0,0,0,28.621,28.621,38.986,38.986,0,0,0-28.621,28.621Z" transform="translate(38.897 30.122)"/><path d="M27.2,192.927a7.917,7.917,0,1,0,7.917,7.917,7.917,7.917,0,0,0-7.917-7.917Zm0,13.655a5.738,5.738,0,1,1,5.738-5.738,5.738,5.738,0,0,1-5.738,5.738Z" transform="translate(5.341 35.428)"/><path d="M473.767,187.878a13.479,13.479,0,0,0,.072-1.671,19.32,19.32,0,1,0-38.64,0,12.359,12.359,0,0,0,.073,1.671H333.588l4.793-17.069-71.9-20.264V60.481H5v202.5H249.843V369.167H502.022V187.878Zm-19.247-18.812a17.141,17.141,0,1,1-17.141,17.141,17.141,17.141,0,0,1,17.141-17.141Zm-17.505,93.188h-9.878l-.145-.653a24.281,24.281,0,0,0-10.1-15.617l-.145-.072a22.352,22.352,0,0,1-5.81-5.883,15.024,15.024,0,0,0,14.6-4.359l-1.6-1.524a12.919,12.919,0,0,1-14.671,3.05,23.275,23.275,0,0,1-1.743-5.517l-.219-1.162h-7.916a4.06,4.06,0,0,1-4.067-4.067V226.3a4.122,4.122,0,0,1,4.067-4.138h6.391l-3.341-18.231L445.3,225.941a30,30,0,0,1-3.995,16.924l-.146.29a30.8,30.8,0,0,0-4.14,19.1Zm-31.522-59.269h37.116l2.4,20.266Zm30.143-12.931a19.6,19.6,0,0,0,6.319,10.75H399.61l3.559,19.174h-3.776a6.262,6.262,0,0,0-6.247,6.319v.072a6.247,6.247,0,0,0,6.247,6.247h6.1a24.553,24.553,0,0,0,9.952,15.034l.145.072a22.107,22.107,0,0,1,9.224,14.236l.072.219H404.55l5.81,28.69-62.241-17.505a25.959,25.959,0,0,0-13.728-23.241l-.581-.291,7.414-13.51a8.793,8.793,0,0,0,.728-6.753,8.54,8.54,0,0,0-4.286-5.229l-.145-.074a9.138,9.138,0,0,0-6.755-.726,8.538,8.538,0,0,0-5.229,4.286l-7.119,13.436-8.569-5.012-2.543-13.509,15.107,4.285,10.46-37.114H435.646ZM303.3,251.359a19.348,19.348,0,0,1-8.643-12.931l-3.276-18.593a6.516,6.516,0,0,1,1.09-4.867,6.69,6.69,0,0,1,4.214-2.614h.145a6.416,6.416,0,0,1,7.264,5.157l3.776,20.264,14.453,8.426,1.09-1.9-3.122-1.816,7.19-13.509a6.584,6.584,0,0,1,9.007-2.759l.145.072a6.517,6.517,0,0,1,3.2,3.995,6.59,6.59,0,0,1-.581,5.084l-8.5,15.471,2.469,1.307a23.729,23.729,0,0,1,12.493,21.934l-.072,1.017,21.426,6.034-5.374,25.2-31.812-9.952a31.809,31.809,0,0,1-22.291-31.593l.29-7.845,7.191,4.576,1.162-1.815Zm-60.938-88.176-.945,3.276-14.526-4.722-.653,2.107,21.062,6.9a7.069,7.069,0,0,1,4.655,8.571l-.074.145a7.069,7.069,0,0,1-8.793,5.012h-.145a8.388,8.388,0,0,0-8.935,2.905l-.145.145a24.705,24.705,0,0,1-24.622,9.007l-1.379-.29-3.486,5.3L187.6,188.826,222.315,136.6l22.512,17.936-1.816,6.536L227.84,150.181l-1.309,1.743Zm-4.431,23.678a6.005,6.005,0,0,1,4.5-.362h.145a9.38,9.38,0,0,0,7.119-.872,9.243,9.243,0,0,0,4.357-5.666l.072-.145a9.338,9.338,0,0,0-6.1-11.186l-4.5-1.452,5.157-18.231L273.3,180.905l-38.714,17.94Zm36.679-4.212,8.276,10.75,12.71-4.867L319.2,223.976l-12.276-3.486-.653-3.341a8.548,8.548,0,0,0-9.733-6.9h-.145a8.565,8.565,0,0,0-5.665,3.486,6.3,6.3,0,0,0-1.017,1.962l-53.747-15.109Zm46.776,40.674-23.607-35.517,37.7-14.381Zm12.2-51.569-49.9,19.029L251.078,148.51ZM7.252,260.872V62.66H264.369v87.3l-16.922-4.793-1.962,6.972-23.678-18.884L179.828,196.3l-31.669-43.721H115.4a19.943,19.943,0,0,0,10.676-14.671l3.05-19.029,1.962,1.016a7.586,7.586,0,0,0,3.559.872,7.836,7.836,0,0,0,6.9-4.138l.078-.084a7.819,7.819,0,0,0-2.541-10.241l-6.247-4.138,13.147-8.276a6.79,6.79,0,0,0-2.107-12.345L93.829,69.922a14.629,14.629,0,0,0-3.05-.362A13.293,13.293,0,0,0,77.56,80.817v.214a13.428,13.428,0,0,0,6.391,13.655l13.581,7.988-1.671,10.538a8.812,8.812,0,0,0-7.916,8.716,8.917,8.917,0,0,0,5.229,8.062l-3.633,22.662H59.329L24.538,260.8H7.252Zm93.478-133.634a6.273,6.273,0,0,1-4.067,1.379,6.61,6.61,0,1,1,6.035-9.3l1.962-.862a8.909,8.909,0,0,0-6.683-5.084l1.526-9.441,27.6,14.09-3.2,19.735A17.807,17.807,0,0,1,106.25,152.79H91.65l3.559-22.009a9.655,9.655,0,0,0,1.453.147,8.878,8.878,0,0,0,5.374-1.816Zm29.788-23.978,7.414,4.867a5.641,5.641,0,0,1,1.888,7.414l-.072.145a5.748,5.748,0,0,1-5.012,2.978,6.179,6.179,0,0,1-2.541-.581l-28.85-14.748L99.35,101.3l-.219-.145L85.186,92.947a11.162,11.162,0,0,1-5.376-11.4v-.219a11.167,11.167,0,0,1,11.035-9.441,9.774,9.774,0,0,1,2.541.29l50.05,11.612a4.578,4.578,0,0,1,1.379,8.352l-14.31,9.007-.291.145v1.816ZM26.79,260.872,60.928,154.9H78.141l17.721,46.919,2.034-.791L80.466,154.824h66.676l32.829,45.322,6.391-9.655L203.14,203.2,190.648,221.94a14.31,14.31,0,0,1-23.171.945l-21.5-27.31,2.686-8.352-2.105-.653-23.9,74.157H26.79Zm98.2,0,20.184-62.6,20.555,26.148a16.453,16.453,0,0,0,12.931,6.319h.653a16.369,16.369,0,0,0,13.074-7.336L208.8,198.781a26.9,26.9,0,0,0,26.076-8.934l-3.341,11.767,32.829,9.224v50.043ZM252.095,366.988V263.052h14.457V211.483l22.662,6.391a9.357,9.357,0,0,0,.072,2.471l3.276,18.593a21.274,21.274,0,0,0,9.655,14.381l3.778,2.4-.364,9.079a33.928,33.928,0,0,0,23.824,33.774l32.031,10.022-5.593,26.076,4.793-3.124a17.081,17.081,0,0,1,22.807,3.705l2.107,2.688a19.255,19.255,0,0,0,25.057,4.576l.291-.147a17.121,17.121,0,0,1,9.224-2.469l5.517,27.241H252.095Zm175.841,0-5.447-27.019a16.917,16.917,0,0,1,9.588,5.012l.29.29a14.772,14.772,0,0,0,10.678,4.5h.217a14.85,14.85,0,0,0,11.552-5.518,15.141,15.141,0,0,0,3.051-12.492l-11.186-53.529-2.107.434L455.759,332.2a12.657,12.657,0,0,1-2.616,10.676,12.788,12.788,0,0,1-9.878,4.721h-.217a12.805,12.805,0,0,1-9.152-3.849l-.291-.291a19.259,19.259,0,0,0-23.822-3.122l-.291.145a17.2,17.2,0,0,1-22.3-4.067l-2.105-2.688a19.176,19.176,0,0,0-25.712-4.212l-.364.217,10.314-48.081L424.6,297.191l-6.247-6.319a5.019,5.019,0,0,1-.072-7.047l.072-.072a4.792,4.792,0,0,1,3.559-1.6,5.1,5.1,0,0,1,3.631,1.453l2.905,2.833,1.526-1.6-2.905-2.833a7,7,0,0,0-5.229-2.033,7.324,7.324,0,0,0-5.084,2.252l-.072.072a7.167,7.167,0,0,0,.145,10.022l.436.436-4.5-1.307-5.517-27.165h49.828l20.688,102.7Zm71.979,0H479.941L458.805,262.253h-19.61a29.726,29.726,0,0,1,3.85-18.086l.145-.29a32.312,32.312,0,0,0,4.138-19.9l-2.469-21.136a19.12,19.12,0,0,0,9.733,2.616,19.4,19.4,0,0,0,18.966-15.4h26.438V366.988Z" transform="translate(-5 -60.481)"/><circle cx="2.541" cy="2.541" r="2.541" transform="translate(114.179 61.521)"/><circle cx="2.541" cy="2.541" r="2.541" transform="translate(103.574 61.521)"/><path d="M253.631,167.935l2.107.507,2.688-10.676-11.04-.436-.074,2.179,8.353.29-2.034,8.136Z" transform="translate(170.467 9.651)"/><path d="M271.108,87.02a10.386,10.386,0,0,1-8.276-4.212l-1.743,1.307a12.319,12.319,0,0,0,20.047,0l-1.743-1.307a10.188,10.188,0,0,1-8.284,4.212Z" transform="translate(180.444 -44.314)"/><path d="M337.979,64.651H225.035a28.178,28.178,0,0,0-28.1,28.1v.581a28.178,28.178,0,0,0,28.1,28.1h75.538l21.281,29.126,1.6-29.126h14.459a28.021,28.021,0,0,0,28.1-28.1v-.581a28.022,28.022,0,0,0-28.036-28.1Zm25.929,28.69a25.916,25.916,0,0,1-25.862,25.931H321.558L320.179,144.4,301.73,119.272H225.108a25.947,25.947,0,0,1-25.929-25.931V92.76A25.945,25.945,0,0,1,225.108,66.83H338.051A25.945,25.945,0,0,1,363.98,92.76v.581Z" transform="translate(133.985 -57.461)"/><path d="M274.954,70.128a19.157,19.157,0,1,0,13.565,5.611A19.176,19.176,0,0,0,274.954,70.128Zm0,36.171a17,17,0,1,1,17-17A17,17,0,0,1,274.954,106.3Z" transform="translate(176.598 -53.496)"/></svg>