<svg xmlns="http://www.w3.org/2000/svg" width="500" height="413.998" viewBox="0 0 500 413.998"><path d="M496.955,29.939H13.076A8.09,8.09,0,0,0,5,38.015V351.236a8.09,8.09,0,0,0,8.076,8.076H496.924A8.09,8.09,0,0,0,505,351.236V38.015a8.064,8.064,0,0,0-8.045-8.076Z" transform="translate(-5 -29.939)" fill="#44bcff"/><path d="M249.974,107.269H53.536a3.667,3.667,0,0,0-3.657,3.657v81.367a3.667,3.667,0,0,0,3.657,3.65H249.945a3.667,3.667,0,0,0,3.657-3.657v-81.36a3.621,3.621,0,0,0-3.628-3.657Z" transform="translate(27.499 26.059)" fill="#00a3ff"/><circle cx="16.64" cy="16.64" r="16.64" transform="translate(303.376 96.24)" fill="#fff"/><circle cx="16.64" cy="16.64" r="16.64" transform="translate(356.981 96.24)" fill="#fff"/><circle cx="16.64" cy="16.64" r="16.64" transform="translate(409.519 96.24)" fill="#fff"/><path d="M309.514,123.566H229.031a34.5,34.5,0,1,0,0,68.995h80.483a34.5,34.5,0,1,0,0-68.995Z" transform="translate(132.248 37.86)" fill="#00a3ff"/><path d="M224.163,129.141a25.1,25.1,0,1,0,19.962,7.251,25.033,25.033,0,0,0-19.962-7.251Z" transform="translate(137.237 41.826)" fill="#fedffd"/><path d="M241.811,246.023c-2.226-9.112-13.166-12.931-21.3-14.629a53.388,53.388,0,0,0-18.012-.7c-4.722.609-9.872,1.524-13.591,4.655a1.073,1.073,0,0,0-.305.345c-3.2,5.424-6.581,17.522,2.043,19.809,4.784,1.248,10.452.578,15.359.731,6.034.152,12.038.4,18.072.426,7.35.029,20.417.334,17.736-10.636Z" transform="translate(125.472 115.105)" fill="#2c2b47"/><path d="M239.588,235.861c-4.6-3.534-10.788-5.15-16.3-6.583-6.917-1.8-14.231-3.809-21.393-4.022-7.5-.243-14.69,2.195-21.667,4.572-.579.212-.4,1.1.152,1.035l.335,13.683c-.517-.031-.7.822-.121,1.035,12.981,4.448,26.024,9.05,39.709,10.94,3.078.428,7.436.457,9.081-2.895,2.1-4.3-5.669-6.857-8.076-8.41-.64-.4-3.352-1.678-3.414-2.317-.274-2.193,3.474-.64,4.39-.395a92.589,92.589,0,0,1,10.391,3.169c3.078,1.128,9.021,3.9,10.971-.579,1.493-3.5-1.493-7.276-4.053-9.231Z" transform="translate(121.629 111.485)" fill="#fedffd"/><path d="M96.835,155.14c-.426-1.219-1.736-1.552-3.26-1.464,1.188-1.128,1.9-2.414,1.128-3.621-1.8-2.8-8.412-.091-10.453.7-7.5,2.931-13.257,10.759-9.569,18.8a.836.836,0,0,0,1.005.517,1.335,1.335,0,0,0,.428-.122,48.319,48.319,0,0,1,12.464-5.3c3.748-.883,7.345-1.95,7.833-6.307a.929.929,0,0,0-.305-.733,2.241,2.241,0,0,0,.731-2.472Z" transform="translate(44.629 56.143)" fill="#8e4dff"/><path d="M83.852,158.506a5.2,5.2,0,0,0-5.09-3.138,5.1,5.1,0,0,0-3.779,3.412,12.338,12.338,0,0,0-.517,5.272c.031.4.06.824.091,1.25a8.937,8.937,0,0,0,.243,2.529,4.919,4.919,0,0,0,3.81,3.9,4.7,4.7,0,0,0,4.266-2.162,10.345,10.345,0,0,0,1.552-4.755A11.117,11.117,0,0,0,83.852,158.506Z" transform="translate(45.24 60.882)" fill="#fff"/><path d="M77.589,155.088c-3.621,1.647-4.084,6.034-3.262,9.483.031.153.153.183.276.183-.062.153-.093.336-.153.488a.272.272,0,0,0,.517.153c1.005-3.688,4.631-8.747,9.081-7.069a.267.267,0,0,0,.334-.245c-.367-3.047-4.295-4.143-6.793-2.993Z" transform="translate(44.95 60.363)" fill="#8e4dff"/><path d="M91.376,159.191a1.537,1.537,0,0,0-.183-.243,1.209,1.209,0,0,0-.212-.183,3.5,3.5,0,0,0-2.529-1.007,9.235,9.235,0,0,0-3.171.183,3.266,3.266,0,0,0-2.01,2.226c-.366,0-.762-.062-1.128-.031l-.457.091a3.418,3.418,0,0,0-.488-.853,1.781,1.781,0,0,0-.183-.243,1.294,1.294,0,0,0-.214-.183,3.5,3.5,0,0,0-2.529-1.007,9.227,9.227,0,0,0-3.169.183c-2.317.824-2.8,4.053-1.616,5.974a3.1,3.1,0,0,0,2.955,1.188,10.48,10.48,0,0,0,3.9-.457A2.779,2.779,0,0,0,82.02,162.3a3.141,3.141,0,0,1,1.067-.06,4.238,4.238,0,0,0,.579,1.645,3.1,3.1,0,0,0,2.955,1.188,10.465,10.465,0,0,0,3.9-.457c2.138-.878,2.076-3.778.853-5.424Zm-11.488,3.322c-.336.548-.945.517-1.493.548-1.159.122-3.2.548-3.414-.976-.214-1.462.61-2.1,1.95-2.069,1.034,0,1.8-.152,2.586.579a2.012,2.012,0,0,1,.374,1.917Zm10.172-.183c-.334.548-.945.517-1.493.548-1.157.121-3.2.548-3.412-.976-.214-1.462.609-2.1,1.95-2.069,1.034,0,1.8-.152,2.586.579a2.1,2.1,0,0,1,.378,1.917Z" transform="translate(44.142 62.575)" fill="#2c2b47"/><path d="M310.848,341.3,266.2,212.273l16.06-71.829a6.19,6.19,0,0,0-4.876-7.314,6.593,6.593,0,0,0-4.785.862,6.088,6.088,0,0,0-2.774,3.871L230.791,312.383a5.981,5.981,0,0,0,.884,4.631,6.319,6.319,0,0,0,3.991,2.683,6.971,6.971,0,0,0,1.341.152A6.338,6.338,0,0,0,243.225,315L264.832,218.4l41.933,122.448a8.517,8.517,0,0,1-.579,7.862,9.024,9.024,0,0,1-7.557,3.2H238.958a1.676,1.676,0,1,0,0,3.352h63.6a9.9,9.9,0,0,0,7.8-5.395,10.96,10.96,0,0,0,.486-8.562Z" transform="translate(158.403 44.691)" fill="#2c2b47"/><path d="M270.073,72.148q-10.464-13.695-20.9-27.423a2.184,2.184,0,0,0-1.8-.856,2.366,2.366,0,0,0-1.8.852c-2.895,3.779-17.431,22.917-20.905,27.428a1.841,1.841,0,0,0-.153,2.1,2.217,2.217,0,0,0,1.952,1.1h.152V97.229a2.095,2.095,0,0,0,2.195,2.012h37.148a2.115,2.115,0,0,0,2.195-2.012V75.348h.152a2.214,2.214,0,0,0,1.95-1.1A2.022,2.022,0,0,0,270.073,72.148Z" transform="translate(153.77 -19.853)" fill="#00a3ff"/><path d="M246.211,61.191h-8.5a5.772,5.772,0,0,0-6,5.517V92.977h20.479V66.738a5.767,5.767,0,0,0-5.972-5.547Zm2.955,28.984H234.752V66.738a2.857,2.857,0,0,1,2.955-2.712h8.5a2.836,2.836,0,0,1,2.955,2.712V90.176Z" transform="translate(159.165 -7.312)" fill="#44bcff"/><path d="M308.57,268.352c-10.117-4.936-21.088-7.374-32.029-9.783l-37.117-8.228c-2.931-.64-5.852-1.281-8.778-1.95a8.94,8.94,0,0,1-4.388-1.616,21.4,21.4,0,0,1-2.469-3.6q-3.429-4.985-7.04-9.843c-4.753-6.369-9.874-12.434-15.084-18.467a203.356,203.356,0,0,0-24.138-22.8c-7.253-6.064-14.233-12.4-23.009-16.207a68.179,68.179,0,0,0-21.179-4.907,2.3,2.3,0,0,0-.7-2.284c-1.128-1.1-2.712-.488-4.053-.274a20.067,20.067,0,0,1-8.381-.916.405.405,0,0,0-.426.091c-.945,0-1.767.824-1.433,2.226v.029a2.069,2.069,0,0,0,.091,1.128,47.068,47.068,0,0,0-4.876.884c-16.76,4.084-33.186,12.891-47.3,22.672-15.878,11-27.548,25.905-38.793,41.379-11,15.172-19.869,35.96-15.419,54.945,4.722,20.114,25.353,30.2,43.486,35.778a261.623,261.623,0,0,0,32.069,7.1c11.4,2.01,22.826,3.869,34.376,4.936a163.156,163.156,0,0,0,35.96-.243,113.71,113.71,0,0,0,16.638-2.835c3.719-1.067,2.774-2.317,2.931-6.186.214-5.7.7-11.724.914-17.433,3.171-.183,23.893-2.438,23.833-2.931a126.7,126.7,0,0,0-2.529-14.69A703.837,703.837,0,0,0,306.054,295.5a.591.591,0,0,0,.517-.4c1.159-3.6.793-7.586,1.007-11.367.3-5,1.128-10.026,1.248-15a.574.574,0,0,0-.257-.381Z" transform="translate(-0.744 69.645)" fill="#8e4dff"/><path d="M214.993,201.562,194.879,174.44a2,2,0,0,1,.4-2.8l16.579-12.466a3.364,3.364,0,0,0,1.279-3.448,3.321,3.321,0,0,0-2.621-2.586l-67.259-14.567a3.395,3.395,0,0,0-4.114,3.1l-4.753,68.659a3.407,3.407,0,0,0,5.455,2.957l16.578-12.464a2,2,0,0,1,2.8.395L179.672,228.1a3.376,3.376,0,0,0,2.712,1.341,3.417,3.417,0,0,0,2.043-.671l29.866-22.429a3.419,3.419,0,0,0,.7-4.778Z" transform="translate(88.688 48.667)" fill="#fff"/><path d="M226.5,238.05a37.181,37.181,0,0,0-22.338-7.619,1.035,1.035,0,0,0,0,2.069,35.329,35.329,0,0,1,21.272,7.345c1.1.826,2.134-1,1.066-1.795Z" transform="translate(138.469 115.245)" fill="#2c2b47"/><path d="M161.936,263.111c2.284-1.159,3.383-3.017-.153-5.121-4.022-2.414-9.781-2.986-15.024-2.864a3.759,3.759,0,0,0,1.281-2.347c.609-2.895-1.829-3.809-4.328-3.931a88.278,88.278,0,0,0-16.243,1.462c-6.278.884-12.526,2.012-18.8,3.1a.4.4,0,0,0-.366.457v.031a177.672,177.672,0,0,0-.762,18.895c0,.974-.274,3.017.457,3.869.824.916,3.84,1.4,5.09,1.829,2.56.853,5.15,1.645,7.741,2.378,9.295,2.559,19.686,4.845,29.378,4.51,2.193-.062,5.607-.824,6.46-3.231a3.127,3.127,0,0,0-.793-3.322c3.322-.274,7.741-.792,9.266-3.2a2.505,2.505,0,0,0-1.1-3.933c2.043-.3,3.81-1.248,3.966-3.621.271-3.565-2.99-4.724-6.067-4.967Z" transform="translate(69.215 128.582)" fill="#fedffd"/><path d="M136.379,251.661a62.147,62.147,0,0,0-15.572,1.379c-1.31.274-.762,2.286.548,2.012a57.857,57.857,0,0,1,15.024-1.312c1.371.053,1.34-2.019,0-2.079Z" transform="translate(78.316 130.586)" fill="#2c2b47"/><path d="M146.308,256.734a150.151,150.151,0,0,0-17.369-.366c-1.341.06-1.341,2.133,0,2.069a149.783,149.783,0,0,1,17.369.366C147.649,258.927,147.649,256.855,146.308,256.734Z" transform="translate(84.02 133.954)" fill="#2c2b47"/><path d="M148.015,262.308a59.8,59.8,0,0,1-18.193-1.25c-1.31-.305-1.86,1.707-.55,2.01a61.632,61.632,0,0,0,18.772,1.312c1.281-.093,1.3-2.164-.029-2.072Z" transform="translate(84.447 137.401)" fill="#2c2b47"/><path d="M141.866,266.17a62.33,62.33,0,0,1-13.653-1.524c-1.31-.305-1.859,1.707-.548,2.012a63.873,63.873,0,0,0,14.2,1.584,1.036,1.036,0,1,0,0-2.072Z" transform="translate(83.282 139.999)" fill="#2c2b47"/><path d="M148.993,269.169a9.536,9.536,0,0,0-5.029-3.017c-8.838-3.321-17.279-7.222-26.329-10.026-10.088-3.1-20.328-5.638-30.505-8.381q-7.5-2.01-14.872-4.328-3.54-1.11-7.04-2.347c-2.224-.791-5-1.4-6.705-3.138-4.448-4.419.4-12.586,3.14-16.7,1.128-1.676-1.584-3.26-2.712-1.584-2.621,3.931-5.121,8.653-5.241,13.5-.214,7.953,7.343,9.843,13.591,11.947,20.571,6.886,42.024,10.757,62.352,18.407,4.631,1.736,9.05,4.052,13.714,5.729,4.174,1.522,4.266,4.631,3.9,8.807-.183,2.01,2.957,1.981,3.14,0,.274-2.926.426-6.369-1.4-8.869Z" transform="translate(30.261 106.92)" fill="#fedffd"/><path d="M133.394,268.339c-6.919-22.522-16.517-44.067-23.953-66.405-.64-1.9-3.657-1.1-3.017.822,7.414,22.338,17.034,43.885,23.953,66.405a1.564,1.564,0,1,0,3.017-.822Z" transform="translate(68.38 93.825)" fill="#fedffd"/><path d="M257.9,109.945H43.788A22.214,22.214,0,0,1,21.633,87.79v-17.7A22.214,22.214,0,0,1,43.788,47.933H257.9a22.216,22.216,0,0,1,22.155,22.155V87.793A22.216,22.216,0,0,1,257.9,109.945Z" transform="translate(7.045 -16.909)" fill="#fff"/><path d="M170.86,56.842A15.947,15.947,0,0,0,147.883,78.63L135.3,93.8a1.519,1.519,0,0,0,.214,2.178l3.448,2.864a1.519,1.519,0,0,0,2.164-.214l12.586-15.172a15.94,15.94,0,0,0,17.157-26.6Zm-2.255,18.864a13.482,13.482,0,1,1,0,.007Z" transform="translate(89.09 -13.116)" fill="#44bcff"/></svg>
